<svg width="271" height="183" viewBox="0 0 271 183" fill="none" xmlns="http://www.w3.org/2000/svg">
<g clip-path="url(#clip0_33_931)">
<path d="M197.74 44.5665C197.74 62.1238 172.105 113.901 157.408 142.146C156.411 144.062 154.954 145.659 153.187 146.77C151.421 147.881 149.409 148.467 147.36 148.467C145.311 148.467 143.3 147.881 141.533 146.77C139.767 145.659 138.31 144.062 137.313 142.146C122.615 113.901 96.9806 62.1238 96.9806 44.5665C96.9806 19.9531 119.536 0 147.36 0C175.184 0 197.74 19.9531 197.74 44.5665Z" fill="#8B99BA"/>
<path d="M147.597 73.4335C162.75 73.4335 175.034 60.2826 175.034 44.0601C175.034 27.8376 162.75 14.6867 147.597 14.6867C132.444 14.6867 120.16 27.8376 120.16 44.0601C120.16 60.2826 132.444 73.4335 147.597 73.4335Z" fill="white"/>
<path d="M241.619 119.281C167.166 89.4015 76.3596 118.532 23.9316 178.119C23.6336 178.454 23.3356 178.793 23.047 179.132H22.2476C22.5219 178.793 22.8058 178.454 23.0848 178.119C76.6008 113.999 166.201 88.4443 241.619 119.281Z" fill="#3F3D56"/>
<path d="M261.965 129.192C255.384 125.435 248.588 122.125 241.619 119.281C248.607 122.078 255.405 125.389 261.965 129.192Z" fill="#3F3D56"/>
<path opacity="0.4" d="M221.217 99.3809C226.943 99.3809 231.586 94.4108 231.586 88.2797C231.586 82.1487 226.943 77.1785 221.217 77.1785C215.49 77.1785 210.847 82.1487 210.847 88.2797C210.847 94.4108 215.49 99.3809 221.217 99.3809Z" fill="#8B99BA"/>
<path d="M222.371 173.668C223.173 176.839 225.917 178.804 225.917 178.804C225.917 178.804 227.363 175.626 226.561 172.455C225.76 169.284 223.015 167.319 223.015 167.319C223.015 167.319 221.57 170.497 222.371 173.668Z" fill="#3F3D56"/>
<path d="M223.549 172.987C225.747 175.278 226.016 178.801 226.016 178.801C226.016 178.801 222.72 178.608 220.521 176.317C218.322 174.025 218.053 170.502 218.053 170.502C218.053 170.502 221.35 170.695 223.549 172.987Z" fill="#8B99BA"/>
<path d="M127.055 149.831L125.098 146.339L143.364 129.577C156.868 122.618 173.147 124.626 190.335 129.577V134.465L173.374 154.021L153.802 158.212L127.055 149.831Z" fill="#3F3D56"/>
<path d="M198.421 139.413C201.664 135.55 202.115 131.877 198.421 128.486H192.271V131.931L190.335 129.577L174.678 146.339L172.068 149.132L168.807 163.101L174.678 178.465H204.687V147.037L198.421 139.413Z" fill="#CCCCCC"/>
<path d="M125.098 146.339H174.678V178.466H125.098C119.1 171.518 122.216 158.855 125.098 146.339Z" fill="#F2F2F2"/>
<path d="M167.828 156.466H157.39V166.243H167.828V156.466Z" fill="#3F3D56"/>
<path d="M153.15 156.116H144.017V178.466H153.15V156.116Z" fill="#CCCCCC"/>
<path d="M133.579 159.608V156.117H129.665V159.608H133.253H133.579Z" fill="#3F3D56"/>
<path d="M133.253 162.402H129.665V165.894H133.579V162.402H133.253Z" fill="#3F3D56"/>
<path d="M140.103 156.116H136.188V159.608H140.103V156.116Z" fill="#3F3D56"/>
<path d="M140.103 162.402H136.188V165.894H140.103V162.402Z" fill="#3F3D56"/>
<path d="M188.704 159.958V156.466H184.79V159.958H188.378H188.704Z" fill="#3F3D56"/>
<path d="M188.378 162.751H184.79V166.243H188.704V162.751H188.378Z" fill="#3F3D56"/>
<path d="M195.228 156.466H191.314V159.958H195.228V156.466Z" fill="#3F3D56"/>
<path d="M195.228 162.751H191.314V166.243H195.228V162.751Z" fill="#3F3D56"/>
<path d="M38.7739 91.1639L35.5122 88.3699L53.7785 70.9094H100.097V86.2747L70.0878 107.926L38.7739 91.1639Z" fill="#3F3D56"/>
<path d="M108.541 80.7038V71.2582H102.392V73.5716L100.096 70.9093L85.0919 88.3697L79.2208 92.5605L70.117 163.767L83.8463 178.466H115.753C120.642 152.137 124.519 125.09 115.753 89.0681L108.541 80.7038Z" fill="#CCCCCC"/>
<path d="M35.5119 88.3699H85.092V178.466H35.5119C30.0865 143.464 27.4367 111.005 35.5119 88.3699Z" fill="#F2F2F2"/>
<path d="M63.89 156.466H54.7568V178.466H63.89V156.466Z" fill="#CCCCCC"/>
<path d="M44.9713 162.751V159.26H41.0573V162.751H44.6454H44.9713Z" fill="#3F3D56"/>
<path d="M44.6454 165.545H41.0573V169.037H44.9713V165.545H44.6454Z" fill="#3F3D56"/>
<path d="M51.495 159.259H47.5808V162.751H51.495V159.259Z" fill="#3F3D56"/>
<path d="M71.3924 165.545H67.8044V169.037H71.7184V165.545H71.3924Z" fill="#3F3D56"/>
<path d="M78.2422 159.259H74.3279V162.751H78.2422V159.259Z" fill="#3F3D56"/>
<path d="M78.2422 165.545H74.3279V169.037H78.2422V165.545Z" fill="#3F3D56"/>
<path d="M99.1178 92.9096V89.4177H95.2038V92.9096H98.7919H99.1178Z" fill="#3F3D56"/>
<path d="M98.7919 95.7036H95.2038V99.1955H99.1178V95.7036H98.7919Z" fill="#3F3D56"/>
<path d="M105.642 89.4175H101.727V92.9096H105.642V89.4175Z" fill="#3F3D56"/>
<path d="M105.642 95.7033H101.727V99.1954H105.642V95.7033Z" fill="#3F3D56"/>
<path d="M99.1178 112.466V108.973H95.2038V112.466H98.7919H99.1178Z" fill="#3F3D56"/>
<path d="M98.7919 115.259H95.2038V118.751H99.1178V115.259H98.7919Z" fill="#3F3D56"/>
<path d="M105.642 108.973H101.727V112.465H105.642V108.973Z" fill="#3F3D56"/>
<path d="M105.642 115.259H101.727V118.751H105.642V115.259Z" fill="#3F3D56"/>
<path d="M99.1178 132.021V128.529H95.2038V132.021H98.7919H99.1178Z" fill="#3F3D56"/>
<path d="M98.7919 134.815H95.2038V138.307H99.1178V134.815H98.7919Z" fill="#3F3D56"/>
<path d="M105.642 128.529H101.727V132.021H105.642V128.529Z" fill="#3F3D56"/>
<path d="M105.642 134.815H101.727V138.307H105.642V134.815Z" fill="#3F3D56"/>
<path d="M99.1178 151.577V148.084H95.2038V151.577H98.7919H99.1178Z" fill="#3F3D56"/>
<path d="M98.7919 154.37H95.2038V157.862H99.1178V154.37H98.7919Z" fill="#3F3D56"/>
<path d="M105.642 148.085H101.727V151.577H105.642V148.085Z" fill="#3F3D56"/>
<path d="M105.642 154.37H101.727V157.862H105.642V154.37Z" fill="#3F3D56"/>
<path d="M41.0571 92.9096H78.8945V101.291C66.7664 97.7073 54.1192 97.9643 41.0571 101.291V92.9096Z" fill="#3F3D56"/>
<path d="M41.0571 109.672C52.8665 113.397 65.479 113.397 78.8945 109.672V118.053H41.0571V109.672Z" fill="#3F3D56"/>
<path d="M41.0571 126.434H78.8945V134.815C65.9996 130.406 53.3738 130.199 41.0571 134.815V126.434Z" fill="#3F3D56"/>
<path d="M41.0571 143.196C53.397 148.287 66.0209 148.075 78.8945 143.196V151.577H41.0571V143.196Z" fill="#3F3D56"/>
<path d="M244.415 128.635H271V142.35L268.625 143.145L260.725 145.785L248.331 142.711L235.952 139.639L229.414 138.018L226.15 136.725C228.865 132.737 233.804 129.6 244.415 128.635Z" fill="#3F3D56"/>
<path d="M271 136.725V178.466H226.15C226.136 178.441 226.127 178.417 226.112 178.391V178.389C226.102 178.36 226.089 178.332 226.075 178.305C225.374 176.796 224.747 175.291 224.192 173.79C219.485 161.09 219.996 148.724 226.15 136.725H271Z" fill="#F2F2F2"/>
<path d="M254.528 156.466H245.395V178.466H254.528V156.466Z" fill="#CCCCCC"/>
<path d="M235.61 162.751V159.26H231.696V162.751H235.284H235.61Z" fill="#3F3D56"/>
<path d="M235.284 165.545H231.696V169.037H235.61V165.545H235.284Z" fill="#3F3D56"/>
<path d="M242.133 159.259H238.219V162.751H242.133V159.259Z" fill="#3F3D56"/>
<path d="M242.133 165.545H238.219V169.037H242.133V165.545Z" fill="#3F3D56"/>
<path d="M262.357 162.751V159.26H258.443V162.751H262.031H262.357Z" fill="#3F3D56"/>
<path d="M262.031 165.545H258.443V169.037H262.357V165.545H262.031Z" fill="#3F3D56"/>
<path d="M268.881 159.259H264.966V162.751H268.881V159.259Z" fill="#3F3D56"/>
<path d="M268.881 165.545H264.966V169.037H268.881V165.545Z" fill="#3F3D56"/>
<path d="M262.485 143.196H235.953V151.577H262.485V143.196Z" fill="#3F3D56"/>
<path d="M271 178.119H1.36246V179.132H271V178.119Z" fill="#3F3D56"/>
<path d="M26.2309 138.108H25.2849V178.117H26.2309V138.108Z" fill="#3F3D56"/>
<path d="M34.9623 143.207C35.0226 157.197 25.8288 168.584 25.8288 168.584C25.8288 168.584 14.055 157.046 16.4771 143.298C18.9131 129.472 26.5053 117.98 25.6107 117.921C25.6107 117.921 34.9021 129.217 34.9623 143.207Z" fill="#8B99BA"/>
<path d="M120.841 138.108H119.895V178.117H120.841V138.108Z" fill="#3F3D56"/>
<path d="M129.572 143.207C130.425 157.167 120.438 168.584 120.438 168.584C120.438 168.584 111.147 157.288 111.087 143.298C111.027 129.308 120.22 117.921 120.22 117.921C119.324 121.756 128.882 131.911 129.572 143.207Z" fill="#8B99BA"/>
<path d="M59.3737 73.0734L100.469 70.9211L117.709 86.3264L114.661 89.2723L87.3616 88.6145L59.3737 73.0734Z" fill="#3F3D56"/>
<path d="M149.253 131.314L190.348 129.161L207.588 144.567L204.54 147.513L177.241 146.855L149.253 131.314Z" fill="#3F3D56"/>
</g>
<defs>
<clipPath id="clip0_33_931">
<rect width="271" height="183" fill="white"/>
</clipPath>
</defs>
</svg>
