<svg width="1728" height="588" viewBox="0 0 1728 588" fill="none" xmlns="http://www.w3.org/2000/svg">
<g clip-path="url(#clip0_130_489)">
<path d="M1638.5 242.897C1706.16 242.897 1761.01 199.491 1761.01 145.948C1761.01 92.4052 1706.16 49 1638.5 49C1570.85 49 1516 92.4052 1516 145.948C1516 199.491 1570.85 242.897 1638.5 242.897Z" fill="white"/>
<path d="M849.095 427.668V443.815L848.083 444.684V427.501C848.42 427.551 848.757 427.618 849.095 427.668Z" fill="#3F3D56"/>
<path d="M914.108 587.883C913.813 588.268 913.496 588.652 913.179 589.037H848.083V428.47L849.097 427.668L857.735 435.441V424.074H885.193V460.146L912.926 485.068L913.179 485.302C913.517 486.138 913.834 486.974 914.151 487.809C914.153 487.822 914.16 487.834 914.172 487.843C918.331 498.376 921.744 509.085 924.394 519.919C930.435 545.477 929.527 568.912 914.108 587.883Z" fill="#CCCCCC"/>
<path d="M870.94 516.422H853.463V527.947H870.94V516.422Z" fill="#3F3D56"/>
<path d="M870.94 537.168H853.463V548.694H870.94V537.168Z" fill="#3F3D56"/>
<path d="M1409.29 494.522L1400.56 482.997L1482.11 427.673C1542.41 404.706 1615.09 411.333 1691.84 427.673V443.809L1616.1 508.354L1528.72 522.185L1409.29 494.522Z" fill="#3F3D56"/>
<path d="M1727.94 460.139C1742.42 447.39 1744.43 435.267 1727.94 424.073H1700.48V435.446L1691.84 427.673L1621.93 482.998L1610.28 492.218L1595.71 538.321L1621.93 589.034H1755.92V485.302L1727.94 460.139Z" fill="#CCCCCC"/>
<path d="M1400.56 482.997H1621.93V589.034H1400.56C1373.77 566.103 1387.69 524.308 1400.56 482.997Z" fill="#F2F2F2"/>
<path d="M1591.34 516.422H1544.74V548.694H1591.34V516.422Z" fill="#3F3D56"/>
<path d="M1525.81 515.269H1485.03V589.034H1525.81V515.269Z" fill="#CCCCCC"/>
<path d="M1438.42 526.795V515.27H1420.95V526.795H1436.96H1438.42Z" fill="#3F3D56"/>
<path d="M1436.96 536.015H1420.95V547.542H1438.42V536.015H1436.96Z" fill="#3F3D56"/>
<path d="M1467.55 515.269H1450.07V526.795H1467.55V515.269Z" fill="#3F3D56"/>
<path d="M1467.55 536.016H1450.07V547.541H1467.55V536.016Z" fill="#3F3D56"/>
<path d="M1684.55 527.949V516.422H1667.08V527.949H1683.1H1684.55Z" fill="#3F3D56"/>
<path d="M1683.1 537.168H1667.08V548.694H1684.55V537.168H1683.1Z" fill="#3F3D56"/>
<path d="M1713.68 516.422H1696.2V527.947H1713.68V516.422Z" fill="#3F3D56"/>
<path d="M1713.68 537.168H1696.2V548.694H1713.68V537.168Z" fill="#3F3D56"/>
<path d="M1015.12 300.891L1000.56 291.669L1082.12 234.04H1288.93V284.754L1154.94 356.215L1015.12 300.891Z" fill="#3F3D56"/>
<path d="M1326.63 266.367V235.191H1299.17V242.826L1288.92 234.039L1221.93 291.668L1195.72 305.5L1155.07 540.521L1216.37 589.034H1358.83C1380.66 502.135 1397.97 412.865 1358.83 293.973L1326.63 266.367Z" fill="#CCCCCC"/>
<path d="M1000.56 291.669H1221.93V589.034H1000.56C976.334 473.51 964.504 366.378 1000.56 291.669Z" fill="#F2F2F2"/>
<path d="M1127.27 516.422H1086.49V589.034H1127.27V516.422Z" fill="#CCCCCC"/>
<path d="M1042.79 537.169V525.644H1025.32V537.169H1041.34H1042.79Z" fill="#3F3D56"/>
<path d="M1041.34 546.389H1025.32V557.915H1042.79V546.389H1041.34Z" fill="#3F3D56"/>
<path d="M1071.92 525.642H1054.45V537.168H1071.92V525.642Z" fill="#3F3D56"/>
<path d="M1160.76 546.389H1144.74V557.915H1162.22V546.389H1160.76Z" fill="#3F3D56"/>
<path d="M1191.35 525.642H1173.87V537.168H1191.35V525.642Z" fill="#3F3D56"/>
<path d="M1191.35 546.389H1173.87V557.914H1191.35V546.389Z" fill="#3F3D56"/>
<path d="M1284.56 306.652V295.127H1267.08V306.652H1283.1H1284.56Z" fill="#3F3D56"/>
<path d="M1283.1 315.874H1267.08V327.399H1284.56V315.874H1283.1Z" fill="#3F3D56"/>
<path d="M1313.68 295.127H1296.21V306.653H1313.68V295.127Z" fill="#3F3D56"/>
<path d="M1313.68 315.873H1296.21V327.399H1313.68V315.873Z" fill="#3F3D56"/>
<path d="M1284.56 371.198V359.671H1267.08V371.198H1283.1H1284.56Z" fill="#3F3D56"/>
<path d="M1283.1 380.418H1267.08V391.944H1284.56V380.418H1283.1Z" fill="#3F3D56"/>
<path d="M1313.68 359.671H1296.21V371.197H1313.68V359.671Z" fill="#3F3D56"/>
<path d="M1313.68 380.417H1296.21V391.943H1313.68V380.417Z" fill="#3F3D56"/>
<path d="M1284.56 435.742V424.216H1267.08V435.742H1283.1H1284.56Z" fill="#3F3D56"/>
<path d="M1283.1 444.962H1267.08V456.488H1284.56V444.962H1283.1Z" fill="#3F3D56"/>
<path d="M1313.68 424.215H1296.21V435.741H1313.68V424.215Z" fill="#3F3D56"/>
<path d="M1313.68 444.962H1296.21V456.488H1313.68V444.962Z" fill="#3F3D56"/>
<path d="M1284.56 500.287V488.76H1267.08V500.287H1283.1H1284.56Z" fill="#3F3D56"/>
<path d="M1283.1 509.507H1267.08V521.032H1284.56V509.507H1283.1Z" fill="#3F3D56"/>
<path d="M1313.68 488.76H1296.21V500.286H1313.68V488.76Z" fill="#3F3D56"/>
<path d="M1313.68 509.506H1296.21V521.032H1313.68V509.506Z" fill="#3F3D56"/>
<path d="M1025.32 306.652H1194.26V334.314C1140.11 322.487 1083.64 323.335 1025.32 334.314V306.652Z" fill="#3F3D56"/>
<path d="M1025.32 361.976C1078.05 374.271 1134.36 374.271 1194.26 361.976V389.638H1025.32V361.976Z" fill="#3F3D56"/>
<path d="M1025.32 417.3H1194.26V444.962C1136.68 430.412 1080.31 429.727 1025.32 444.962V417.3Z" fill="#3F3D56"/>
<path d="M1025.32 472.624C1080.41 489.428 1136.78 488.729 1194.26 472.624V500.286H1025.32V472.624Z" fill="#3F3D56"/>
<path d="M2052 587.891H848.083V591.234H2052V587.891Z" fill="#3F3D56"/>
<path d="M959.12 455.833H954.896V587.883H959.12V455.833Z" fill="#3F3D56"/>
<path d="M998.105 472.661C998.374 518.836 957.324 556.418 957.324 556.418C957.324 556.418 904.755 518.337 915.57 472.962C926.446 427.328 960.345 389.399 956.35 389.205C956.35 389.205 997.836 426.486 998.105 472.661Z" fill="#8B99BA"/>
<path d="M1381.55 455.833H1377.32V587.883H1381.55V455.833Z" fill="#3F3D56"/>
<path d="M1420.53 472.661C1424.34 518.738 1379.75 556.418 1379.75 556.418C1379.75 556.418 1338.27 519.137 1338 472.962C1337.73 426.788 1378.78 389.205 1378.78 389.205C1374.78 401.862 1417.45 435.38 1420.53 472.661Z" fill="#8B99BA"/>
<path d="M1107.1 241.182L1290.59 234.078L1367.56 284.924L1353.95 294.648L1232.06 292.476L1107.1 241.182Z" fill="#3F3D56"/>
<path d="M924.014 477.145L914.129 484.216L912.926 485.068L910.412 486.873L848.083 485.77V427.501C846.055 427.15 844.028 426.816 842 426.498L847.048 426.297L848.083 426.983L857.735 433.351L885.193 451.504L915.861 471.763L924.014 477.145Z" fill="#3F3D56"/>
<path d="M1508.41 433.407L1691.9 426.303L1768.87 477.149L1755.26 486.872L1633.37 484.701L1508.41 433.407Z" fill="#3F3D56"/>
</g>
<g clip-path="url(#clip1_130_489)">
<path d="M976.658 426.405C947.275 414.004 916.934 403.078 885.815 393.694C917.015 402.924 947.369 413.854 976.658 426.405Z" fill="#3F3D56"/>
<path d="M799.875 573.2C803.453 583.667 815.708 590.149 815.708 590.149C815.708 590.149 822.162 579.662 818.584 569.195C815.006 558.728 802.752 552.246 802.752 552.246C802.752 552.246 796.298 562.733 799.875 573.2Z" fill="#3F3D56"/>
<path d="M805.133 570.951C814.95 578.514 816.15 590.141 816.15 590.141C816.15 590.141 801.431 589.505 791.614 581.941C781.796 574.378 780.597 562.751 780.597 562.751C780.597 562.751 795.315 563.387 805.133 570.951Z" fill="#8B99BA"/>
<path d="M374.294 494.522L365.556 482.997L447.114 427.673C507.409 404.706 580.09 411.333 656.836 427.673V443.809L581.103 508.354L493.718 522.185L374.294 494.522Z" fill="#3F3D56"/>
<path d="M692.937 460.139C707.42 447.39 709.432 435.267 692.937 424.073H665.479V435.446L656.836 427.673L586.929 482.998L575.276 492.218L560.713 538.321L586.929 589.034H720.916V485.302L692.937 460.139Z" fill="#CCCCCC"/>
<path d="M365.556 482.997H586.928V589.034H365.556C338.774 566.103 352.687 524.308 365.556 482.997Z" fill="#F2F2F2"/>
<path d="M556.344 516.422H509.739V548.694H556.344V516.422Z" fill="#3F3D56"/>
<path d="M490.806 515.269H450.027V589.034H490.806V515.269Z" fill="#CCCCCC"/>
<path d="M403.422 526.795V515.27H385.946V526.795H401.965H403.422Z" fill="#3F3D56"/>
<path d="M401.965 536.015H385.946V547.542H403.422V536.015H401.965Z" fill="#3F3D56"/>
<path d="M432.55 515.269H415.073V526.795H432.55V515.269Z" fill="#3F3D56"/>
<path d="M432.55 536.016H415.073V547.541H432.55V536.016Z" fill="#3F3D56"/>
<path d="M649.554 527.949V516.422H632.076V527.949H648.097H649.554Z" fill="#3F3D56"/>
<path d="M648.097 537.168H632.076V548.694H649.554V537.168H648.097Z" fill="#3F3D56"/>
<path d="M678.681 516.422H661.204V527.947H678.681V516.422Z" fill="#3F3D56"/>
<path d="M678.681 537.168H661.204V548.694H678.681V537.168Z" fill="#3F3D56"/>
<path d="M-19.8773 300.891L-34.4404 291.669L47.1175 234.04H253.925V284.754L119.938 356.215L-19.8773 300.891Z" fill="#3F3D56"/>
<path d="M291.631 266.367V235.191H264.173V242.826L253.925 234.039L186.93 291.668L160.716 305.5L120.068 540.521L181.369 589.034H323.832C345.661 502.135 362.97 412.865 323.832 293.973L291.631 266.367Z" fill="#CCCCCC"/>
<path d="M-34.4412 291.669H186.931V589.034H-34.4412C-58.6656 473.51 -70.4965 366.378 -34.4412 291.669Z" fill="#F2F2F2"/>
<path d="M92.2655 516.422H51.4863V589.034H92.2655V516.422Z" fill="#CCCCCC"/>
<path d="M7.79416 537.169V525.644H-9.68164V537.169H6.3389H7.79416Z" fill="#3F3D56"/>
<path d="M6.3389 546.389H-9.68164V557.915H7.79416V546.389H6.3389Z" fill="#3F3D56"/>
<path d="M36.922 525.642H19.4453V537.168H36.922V525.642Z" fill="#3F3D56"/>
<path d="M125.764 546.389H109.743V557.915H127.219V546.389H125.764Z" fill="#3F3D56"/>
<path d="M156.347 525.642H138.87V537.168H156.347V525.642Z" fill="#3F3D56"/>
<path d="M156.347 546.389H138.87V557.914H156.347V546.389Z" fill="#3F3D56"/>
<path d="M249.556 306.652V295.127H232.08V306.652H248.101H249.556Z" fill="#3F3D56"/>
<path d="M248.101 315.874H232.08V327.399H249.556V315.874H248.101Z" fill="#3F3D56"/>
<path d="M278.684 295.127H261.207V306.653H278.684V295.127Z" fill="#3F3D56"/>
<path d="M278.684 315.873H261.207V327.399H278.684V315.873Z" fill="#3F3D56"/>
<path d="M249.556 371.198V359.671H232.08V371.198H248.101H249.556Z" fill="#3F3D56"/>
<path d="M248.101 380.418H232.08V391.944H249.556V380.418H248.101Z" fill="#3F3D56"/>
<path d="M278.684 359.671H261.207V371.197H278.684V359.671Z" fill="#3F3D56"/>
<path d="M278.684 380.417H261.207V391.943H278.684V380.417Z" fill="#3F3D56"/>
<path d="M249.556 435.742V424.216H232.08V435.742H248.101H249.556Z" fill="#3F3D56"/>
<path d="M248.101 444.962H232.08V456.488H249.556V444.962H248.101Z" fill="#3F3D56"/>
<path d="M278.684 424.215H261.207V435.741H278.684V424.215Z" fill="#3F3D56"/>
<path d="M278.684 444.962H261.207V456.488H278.684V444.962Z" fill="#3F3D56"/>
<path d="M249.556 500.287V488.76H232.08V500.287H248.101H249.556Z" fill="#3F3D56"/>
<path d="M248.101 509.507H232.08V521.032H249.556V509.507H248.101Z" fill="#3F3D56"/>
<path d="M278.684 488.76H261.207V500.286H278.684V488.76Z" fill="#3F3D56"/>
<path d="M278.684 509.506H261.207V521.032H278.684V509.506Z" fill="#3F3D56"/>
<path d="M-9.68262 306.652H159.259V334.314C105.108 322.487 48.6392 323.335 -9.68262 334.314V306.652Z" fill="#3F3D56"/>
<path d="M-9.68262 361.976C43.046 374.271 99.3601 374.271 159.259 361.976V389.638H-9.68262V361.976Z" fill="#3F3D56"/>
<path d="M-9.68262 417.3H159.259V444.962C101.684 430.412 45.311 429.727 -9.68262 444.962V417.3Z" fill="#3F3D56"/>
<path d="M-9.68262 472.624C45.4146 489.428 101.779 488.729 159.259 472.624V500.286H-9.68262V472.624Z" fill="#3F3D56"/>
<path d="M898.298 424.567H1017V469.831L1006.4 472.456L971.124 481.169L915.786 471.024L860.511 460.887L831.322 455.535L816.748 451.268C828.872 438.103 850.922 427.749 898.298 424.567Z" fill="#3F3D56"/>
<path d="M1017 451.268V589.037H816.748C816.685 588.951 816.642 588.874 816.579 588.789V588.781C816.531 588.685 816.475 588.592 816.41 588.502C813.284 583.523 810.482 578.556 808.004 573.603C786.988 531.684 789.269 490.872 816.748 451.268H1017Z" fill="#F2F2F2"/>
<path d="M943.456 516.422H902.677V589.034H943.456V516.422Z" fill="#CCCCCC"/>
<path d="M858.985 537.169V525.644H841.509V537.169H857.529H858.985Z" fill="#3F3D56"/>
<path d="M857.529 546.389H841.509V557.915H858.985V546.389H857.529Z" fill="#3F3D56"/>
<path d="M888.113 525.642H870.636V537.168H888.113V525.642Z" fill="#3F3D56"/>
<path d="M888.113 546.389H870.636V557.914H888.113V546.389Z" fill="#3F3D56"/>
<path d="M978.408 537.169V525.644H960.933V537.169H976.953H978.408Z" fill="#3F3D56"/>
<path d="M976.953 546.389H960.933V557.915H978.408V546.389H976.953Z" fill="#3F3D56"/>
<path d="M1007.54 525.642H990.061V537.168H1007.54V525.642Z" fill="#3F3D56"/>
<path d="M1007.54 546.389H990.061V557.914H1007.54V546.389Z" fill="#3F3D56"/>
<path d="M978.981 472.624H860.517V500.286H978.981V472.624Z" fill="#3F3D56"/>
<path d="M1017 587.891H-186.917V591.234H1017V587.891Z" fill="#3F3D56"/>
<path d="M346.547 455.833H342.322V587.883H346.547V455.833Z" fill="#3F3D56"/>
<path d="M385.532 472.661C389.34 518.738 344.751 556.418 344.751 556.418C344.751 556.418 303.265 519.137 302.996 472.962C302.728 426.788 343.777 389.205 343.777 389.205C339.775 401.862 382.451 435.38 385.532 472.661Z" fill="#8B99BA"/>
<path d="M72.1006 241.182L255.59 234.078L332.563 284.924L318.954 294.648L197.065 292.476L72.1006 241.182Z" fill="#3F3D56"/>
<path d="M473.406 433.407L656.896 426.303L733.868 477.149L720.26 486.872L598.371 484.701L473.406 433.407Z" fill="#3F3D56"/>
</g>
<defs>
<clipPath id="clip0_130_489">
<rect width="1210" height="604" fill="white" transform="translate(842)"/>
</clipPath>
<clipPath id="clip1_130_489">
<rect width="1210" height="604" fill="white" transform="translate(-193)"/>
</clipPath>
</defs>
</svg>
