<svg width="379" height="304" viewBox="0 0 379 304" fill="none" xmlns="http://www.w3.org/2000/svg">
<g clip-path="url(#clip0_37_2332)">
<path d="M163.091 268.357C165.711 264.718 169.259 262.056 173.719 261.059C177.608 260.19 181.607 260.338 185.561 260.369L235.549 260.751C239.831 260.784 243.935 264.461 243.736 268.869C243.539 273.24 240.138 277.022 235.549 276.987C220.906 276.875 206.263 276.763 191.62 276.651C188.168 276.625 184.713 276.563 181.261 276.575C180.486 276.577 179.714 276.618 178.939 276.626C178.751 276.628 178.616 276.627 178.52 276.623C178.496 276.63 178.476 276.637 178.445 276.645C178.041 276.755 177.626 276.831 177.22 276.935C177.362 276.94 176.956 277.191 176.752 277.276C176.724 277.331 176.665 277.428 176.565 277.578C176.426 277.837 176.014 278.622 175.997 278.598C175.378 280.15 174.867 281.742 174.469 283.363C173.517 286.939 173.308 287.687 173.171 291.041C172.998 295.279 169.529 299.361 164.984 299.159C160.696 298.969 156.611 295.586 156.797 291.041C157.11 283.383 158.465 274.78 163.091 268.357Z" fill="#E6E6E6"/>
<path d="M232.611 286.677C233.55 281.035 234.471 275.389 235.428 269.75C236.399 264.03 238.383 258.792 242.872 255.037C244.071 254.034 245.315 253.098 246.564 252.164C247.003 251.836 247.442 251.507 247.876 251.172C247.902 251.152 247.918 251.139 247.941 251.122C247.989 251.081 248.046 251.033 248.123 250.968C249.994 249.398 251.802 247.758 253.524 246.014C255.053 244.466 256.516 242.852 257.912 241.171C258.261 240.752 258.605 240.328 258.945 239.901C259.003 239.828 259.318 239.424 259.525 239.161C259.718 238.897 260.071 238.422 260.13 238.339C260.527 237.782 260.917 237.22 261.3 236.653C263.907 232.779 266.165 228.685 268.047 224.417C268.234 223.994 268.416 223.568 268.594 223.14C268.642 223.009 268.704 222.842 268.786 222.618C269.165 221.584 269.543 220.551 269.89 219.504C270.627 217.282 271.26 215.026 271.79 212.738C272.053 211.608 272.289 210.472 272.498 209.331C272.606 208.744 272.708 208.156 272.802 207.566C272.817 207.468 272.909 206.832 272.964 206.473C273.003 206.112 273.078 205.473 273.088 205.374C273.148 204.78 273.201 204.185 273.248 203.59C273.352 202.25 273.423 200.908 273.46 199.564C273.523 197.176 273.48 194.787 273.331 192.399C273.246 191.057 273.125 189.719 272.976 188.383C272.967 188.301 272.96 188.236 272.953 188.177C272.944 188.117 272.934 188.049 272.921 187.965C272.811 187.227 272.695 186.49 272.565 185.755C272.074 182.964 271.436 180.201 270.652 177.477C270.281 176.189 269.878 174.911 269.443 173.644C269.249 173.081 269.049 172.521 268.843 171.963C268.856 171.999 268.238 170.432 268.23 170.38C265.776 164.632 261.763 159.391 261.758 152.861C261.754 148.44 265.526 144.205 269.945 144.41C272.148 144.492 274.233 145.419 275.76 146.996C277.287 148.572 278.138 150.675 278.132 152.861C278.132 152.961 278.132 153.045 278.133 153.128C278.174 153.265 278.208 153.38 278.239 153.482C278.718 154.513 279.304 155.492 279.829 156.498C281.267 159.25 282.495 162.092 283.661 164.975C285.57 169.672 287.031 174.535 288.025 179.501C290.186 190.383 290.354 201.561 288.52 212.502C285.346 231.688 274.878 250.053 260.325 262.398C259.062 263.469 257.768 264.505 256.462 265.519C255.921 265.939 255.376 266.351 254.829 266.76C254.57 266.953 253.498 267.792 253.969 267.386C252.955 268.244 252.528 268.676 252.267 269.308C252.23 269.454 252.178 269.652 252.108 269.923C251.925 270.636 251.75 271.347 251.605 272.07C250.339 278.388 249.458 284.812 248.4 291.17C247.673 295.539 242.249 298.383 238.329 297.073C233.767 295.549 231.831 291.358 232.611 286.677Z" fill="#E6E6E6"/>
<path d="M162.262 303.063C165.701 303.072 169.002 301.728 171.443 299.326C173.883 296.924 175.263 293.661 175.28 290.251V280.991C185.058 282.076 218.54 281.825 228.138 280.296V289.881C228.164 293.288 229.547 296.546 231.985 298.946C234.423 301.346 237.72 302.693 241.156 302.693C244.591 302.693 247.888 301.346 250.326 298.946C252.765 296.546 254.147 293.288 254.173 289.881V271.061C267.172 263.9 278.009 253.429 285.565 240.729C293.121 228.029 297.122 213.56 297.156 198.815C297.156 173.532 285.6 149.946 265.452 134.106C252.351 123.771 236.435 117.557 219.746 116.259C217.48 116.083 215.201 115.994 212.971 115.994C205.116 115.994 169.672 117.197 160.78 119.734L140.502 99.7826C140.204 99.4853 139.823 99.2827 139.409 99.2008C138.994 99.1189 138.564 99.1612 138.174 99.3225C137.781 99.4776 137.444 99.747 137.208 100.095C136.972 100.444 136.848 100.855 136.852 101.274V104.446L132.903 100.569C132.606 100.271 132.225 100.068 131.811 99.9864C131.396 99.9043 130.967 99.9467 130.577 100.108C130.183 100.263 129.846 100.533 129.61 100.881C129.374 101.23 129.249 101.641 129.253 102.061V137.509C119.078 146.605 111.323 158.049 106.675 170.827C102.027 183.605 100.63 197.323 102.607 210.765C104.584 224.207 109.875 236.957 118.01 247.887C126.145 258.816 136.874 267.587 149.245 273.422V290.251C149.262 293.661 150.642 296.924 153.082 299.326C155.523 301.728 158.824 303.072 162.262 303.063ZM174.257 279.84V290.251C174.231 293.389 172.956 296.389 170.709 298.599C168.463 300.808 165.427 302.048 162.262 302.048C159.098 302.048 156.062 300.808 153.816 298.599C151.569 296.389 150.294 293.389 150.268 290.251V272.781L149.976 272.643C136.095 266.112 124.311 255.893 115.933 243.122C105.256 226.826 100.816 207.278 103.416 188.016C106.016 168.755 115.484 151.052 130.106 138.113L130.276 137.962V102.061C130.273 101.842 130.336 101.628 130.459 101.447C130.582 101.266 130.758 101.127 130.963 101.048C131.167 100.962 131.392 100.938 131.61 100.981C131.827 101.024 132.026 101.131 132.181 101.288L137.875 106.88V101.274C137.871 101.056 137.935 100.842 138.058 100.661C138.181 100.48 138.356 100.341 138.562 100.262C138.766 100.175 138.992 100.152 139.21 100.195C139.427 100.239 139.627 100.346 139.782 100.503L160.494 120.882L160.788 120.791C169.055 118.225 205.056 117.008 212.972 117.008C215.175 117.008 217.427 117.097 219.665 117.271C236.151 118.552 251.875 124.692 264.816 134.901C284.718 150.547 296.132 173.843 296.132 198.815C296.098 213.43 292.118 227.769 284.606 240.343C277.094 252.917 266.324 263.267 253.414 270.318L253.15 270.463V289.881C253.123 293.018 251.848 296.018 249.602 298.227C247.355 300.436 244.319 301.675 241.156 301.675C237.992 301.675 234.956 300.436 232.709 298.227C230.463 296.018 229.188 293.018 229.161 289.881V279.081L228.555 279.194C219.93 280.803 183.612 281.057 174.835 279.915L174.257 279.84Z" fill="#3F3D56"/>
<path d="M231.633 60.739L288.298 77.6249C290.1 78.1641 291.613 79.3907 292.504 81.0352C293.395 82.6797 293.591 84.6076 293.049 86.3954C292.507 88.1832 291.272 89.6846 289.615 90.5697C287.957 91.4549 286.013 91.6515 284.209 91.1163L234.621 76.3361L233.582 76.0266C233.372 70.7185 231.92 65.5317 229.34 60.8759C229.664 60.7315 230.01 60.6423 230.364 60.6121C230.791 60.5711 231.222 60.6142 231.633 60.739Z" fill="#8B99BA"/>
<path d="M285.189 94.7164C285.942 94.7146 286.674 94.4784 287.284 94.0413C287.893 93.6041 288.349 92.9881 288.586 92.2803L292.129 81.6779C292.277 81.2351 292.336 80.7678 292.302 80.3026C292.268 79.8374 292.141 79.3834 291.93 78.9666C291.719 78.5497 291.427 78.1782 291.071 77.8733C290.715 77.5683 290.302 77.3359 289.856 77.1892L243.736 62.0334C243.29 61.8867 242.818 61.8285 242.349 61.8624C241.88 61.8962 241.422 62.0214 241.002 62.2306C240.582 62.4399 240.207 62.7293 239.899 63.0821C239.592 63.435 239.357 63.8445 239.209 64.2872L235.666 74.8896C235.371 75.7616 235.43 76.7132 235.831 77.5428C236.231 78.3723 236.942 79.0148 237.811 79.3339C237.854 79.3498 237.897 79.3648 237.941 79.3788L284.059 94.5341C284.424 94.6545 284.805 94.7161 285.189 94.7164Z" fill="#2F2E41"/>
<path d="M283.545 137.687C284.336 137.685 285.104 137.425 285.731 136.947C286.358 136.468 286.808 135.798 287.012 135.04L288.941 127.8C289.182 126.89 289.05 125.922 288.573 125.108C288.095 124.295 287.312 123.703 286.395 123.461L225.534 107.514C224.615 107.276 223.639 107.409 222.819 107.883C221.999 108.357 221.402 109.134 221.158 110.043L219.524 116.178L219.83 116.201C235.439 117.405 250.374 123.016 262.868 132.372L262.956 132.415L282.636 137.57C282.933 137.647 283.238 137.687 283.545 137.687Z" fill="#2F2E41"/>
<path d="M293.625 173.451C300.764 172.405 307.592 169.845 313.644 165.945C316.641 164.015 319.417 161.764 321.92 159.233C324.39 156.735 326.753 153.895 327.977 150.568C329.154 147.489 329.094 144.08 327.807 141.044C326.539 138.027 324.116 135.632 321.069 134.384C318.004 133.172 314.301 133.043 311.319 134.37C309.897 134.988 308.667 135.97 307.755 137.214C307.331 137.788 307.017 138.435 306.829 139.121C306.654 139.743 306.638 140.399 306.782 141.029C306.957 141.657 307.266 142.242 307.687 142.743C308.108 143.243 308.633 143.649 309.225 143.932C310.529 144.596 311.941 145.023 313.397 145.194C314.86 145.392 316.962 145.572 318.139 144.407C318.381 144.177 318.572 143.898 318.698 143.59C318.786 143.354 318.817 143.1 318.786 142.85C318.803 142.96 318.715 142.61 318.72 142.624C318.739 142.676 318.819 142.802 318.705 142.608C318.669 142.544 318.629 142.483 318.586 142.424C318.625 142.474 318.71 142.557 318.557 142.414C318.431 142.278 318.269 142.178 318.09 142.128C318.019 142.108 317.947 142.091 317.876 142.072C317.695 142.023 318.056 142.075 317.871 142.069C317.8 142.067 317.728 142.068 317.657 142.065C317.476 142.057 317.835 142.016 317.662 142.059C317.594 142.076 317.528 142.093 317.461 142.113C317.317 142.158 317.563 142.008 317.466 142.121C317.351 142.252 317.586 141.993 317.456 142.12C317.391 142.183 317.33 142.25 317.273 142.32C317.047 142.541 316.742 142.665 316.425 142.665C316.107 142.665 315.802 142.541 315.576 142.32C315.358 142.094 315.236 141.792 315.236 141.479C315.236 141.166 315.358 140.865 315.576 140.638C316.759 139.184 319.095 139.544 320.292 140.772C321.818 142.339 321.213 144.823 319.729 146.19C318.049 147.738 315.669 147.846 313.508 147.586C311.681 147.413 309.901 146.914 308.253 146.114C306.616 145.316 305.335 143.944 304.659 142.264C304.354 141.367 304.244 140.416 304.337 139.474C304.431 138.532 304.724 137.62 305.2 136.799C307.108 133.242 311.059 131.418 314.965 131.102C316.976 130.946 318.998 131.187 320.914 131.811C322.831 132.435 324.603 133.429 326.13 134.737C329.071 137.363 330.883 141.009 331.189 144.922C331.53 148.98 329.943 152.92 327.628 156.194C325.205 159.52 322.314 162.486 319.042 164.999C312.646 170.062 305.144 173.57 297.136 175.243C296.183 175.438 295.225 175.605 294.263 175.744C293.956 175.818 293.633 175.773 293.359 175.619C293.085 175.464 292.88 175.212 292.787 174.914C292.705 174.61 292.747 174.286 292.903 174.012C293.06 173.738 293.319 173.536 293.625 173.451Z" fill="#3F3D56"/>
<path d="M179.32 121.76C189.78 121.613 200.207 121.877 210.601 122.549C214.154 122.779 217.228 124.025 217.228 126.117C217.228 127.867 214.179 129.917 210.601 129.685C200.212 129.013 189.785 128.749 179.32 128.896C170.788 129.015 170.793 121.879 179.32 121.76Z" fill="#CCCCCC"/>
<path d="M194.78 128.542C195.91 128.542 222.465 128.5 222.465 124.863C222.465 121.226 195.91 121.184 194.78 121.184C193.649 121.184 167.094 121.226 167.094 124.863C167.094 128.5 193.649 128.542 194.78 128.542ZM221.427 124.863C220.7 125.966 210.939 127.527 194.78 127.527C178.62 127.527 168.859 125.966 168.132 124.863C168.859 123.761 178.62 122.199 194.78 122.199C210.939 122.199 220.7 123.761 221.427 124.863Z" fill="#3F3D56"/>
<path d="M110.527 224.16C104.649 223.998 97.3326 223.796 91.6963 219.713C90.018 218.447 88.639 216.833 87.6561 214.984C86.6731 213.134 86.1099 211.094 86.006 209.005C85.891 205.781 87.0657 202.967 89.3141 201.083C92.2579 198.616 96.5566 198.038 101.189 199.388L96.3895 164.607L99.9129 164.129L105.555 205.017L102.613 203.679C99.2019 202.127 94.5194 201.338 91.6097 203.776C90.8952 204.413 90.3385 205.206 89.983 206.091C89.6276 206.977 89.4828 207.931 89.56 208.881C89.6462 210.436 90.0691 211.953 90.7997 213.331C91.5304 214.708 92.5517 215.914 93.7942 216.865C98.1804 220.042 104.012 220.452 110.626 220.635L110.527 224.16Z" fill="#3F3D56"/>
<path d="M120.269 167.607H139.423V171.133H120.269V167.607Z" fill="#3F3D56"/>
<path d="M274.878 153.906C275.73 153.903 276.554 153.599 277.201 153.049C277.849 152.499 278.277 151.738 278.41 150.903L279.579 143.505C279.725 142.574 279.493 141.624 278.934 140.863C278.374 140.102 277.533 139.593 276.595 139.446L214.408 129.784C213.47 129.639 212.512 129.869 211.744 130.424C210.977 130.979 210.463 131.813 210.315 132.743L209.146 140.142C209 141.072 209.232 142.022 209.791 142.783C210.351 143.544 211.192 144.054 212.13 144.201L274.317 153.862C274.503 153.891 274.69 153.906 274.878 153.906Z" fill="#2F2E41"/>
<path d="M300.614 67.2017C286.201 67.2017 274.517 55.6162 274.517 41.3248C274.517 27.0334 286.201 15.448 300.614 15.448C315.026 15.448 326.71 27.0334 326.71 41.3248C326.71 55.6162 315.026 67.2017 300.614 67.2017Z" fill="#8B99BA"/>
<path d="M285.838 48.0203C285.004 47.731 284.242 47.268 283.604 46.6624C283.181 46.2307 282.859 45.7126 282.66 45.1443C282.461 44.5761 282.389 43.9716 282.45 43.373C282.486 42.9464 282.62 42.5338 282.843 42.1672C283.066 41.8007 283.372 41.4903 283.736 41.2602C284.68 40.6843 285.928 40.7061 287.188 41.2852L287.333 31.1842L288.357 31.1986L288.186 43.0735L287.407 42.5669C286.503 41.9804 285.206 41.5551 284.272 42.1247C284.041 42.2754 283.848 42.477 283.708 42.7137C283.569 42.9504 283.486 43.2158 283.467 43.4893C283.424 43.9352 283.478 44.385 283.626 44.8083C283.774 45.2315 284.012 45.6181 284.325 45.9418C285.434 47.0333 287.076 47.399 288.95 47.7335L288.769 48.7321C287.772 48.5821 286.792 48.3439 285.838 48.0203Z" fill="#2F2E41"/>
<path d="M276.796 30.4752L282.245 31.2936L282.092 32.2968L276.642 31.4784L276.796 30.4752Z" fill="#2F2E41"/>
<path d="M293.997 33.0578L299.447 33.8762L299.294 34.8794L293.844 34.061L293.997 33.0578Z" fill="#2F2E41"/>
<path d="M283.368 153.453C284.306 153.451 285.222 153.166 285.993 152.635C286.764 152.105 287.354 151.354 287.684 150.483L305.677 102.702C307.876 96.8424 307.641 90.3567 305.024 84.6682C302.406 78.9797 297.62 74.553 291.715 72.3593L277.085 66.9423C276.519 66.7314 275.917 66.6336 275.313 66.6543C274.709 66.6751 274.115 66.8142 273.566 67.0635C273.017 67.3064 272.523 67.6552 272.113 68.0895C271.702 68.5239 271.383 69.0351 271.173 69.5932L237.843 131.994C237.627 132.557 237.525 133.156 237.543 133.758C237.561 134.36 237.699 134.952 237.949 135.501C238.199 136.05 238.556 136.544 239 136.956C239.443 137.367 239.964 137.688 240.533 137.899L281.759 153.163C282.273 153.355 282.818 153.453 283.368 153.453Z" fill="#2F2E41"/>
<path d="M281.524 68.5857L248.454 112.437L270.831 69.046C271.016 68.5397 271.299 68.0744 271.666 67.6768C272.032 67.2793 272.473 66.9571 272.965 66.7288C273.457 66.5004 273.989 66.3704 274.532 66.3461C275.074 66.3218 275.616 66.4037 276.127 66.5871L281.524 68.5857Z" fill="#E6E6E6"/>
<path d="M229.161 101.888L288.208 98.1167C289.139 98.0573 290.049 97.8167 290.886 97.4086C291.723 97.0005 292.471 96.4329 293.086 95.7383C293.702 95.0437 294.174 94.2356 294.475 93.3602C294.775 92.4848 294.899 91.5593 294.839 90.6364C294.779 89.7135 294.537 88.8113 294.125 87.9814C293.714 87.1515 293.141 86.4102 292.441 85.7996C291.74 85.1891 290.925 84.7213 290.042 84.423C289.16 84.1248 288.226 84.0019 287.295 84.0613L228.248 87.8325C227.812 87.8603 227.386 87.973 226.994 88.1641C226.602 88.3552 226.252 88.621 225.964 88.9463C225.675 89.2716 225.455 89.65 225.314 90.06C225.173 90.4699 225.115 90.9034 225.143 91.3356L225.628 98.809C225.685 99.6819 226.089 100.497 226.752 101.074C227.414 101.652 228.281 101.944 229.161 101.888Z" fill="#8B99BA"/>
<path d="M244.94 104.306C245.018 104.306 245.096 104.304 245.174 104.299L293.661 101.202C294.13 101.172 294.589 101.05 295.011 100.845C295.433 100.639 295.81 100.353 296.121 100.002C296.431 99.652 296.669 99.2445 296.821 98.803C296.973 98.3615 297.035 97.8947 297.005 97.4292L296.176 84.6642C296.145 84.1988 296.023 83.7438 295.815 83.3252C295.608 82.9067 295.319 82.5328 294.966 82.2249C294.612 81.917 294.201 81.6811 293.756 81.5307C293.311 81.3803 292.84 81.3183 292.371 81.3484L243.885 84.445C242.937 84.5065 242.053 84.9383 241.426 85.6455C240.799 86.3528 240.48 87.2777 240.54 88.2174L241.369 100.983C241.415 101.667 241.659 102.323 242.072 102.873C242.484 103.423 243.048 103.843 243.696 104.083C244.094 104.231 244.515 104.306 244.94 104.306Z" fill="#2F2E41"/>
<path d="M300.913 24.1171C297.48 21.1893 292.765 23.8084 288.828 23.35C285.062 22.9113 282.087 19.561 281.328 16.0018C280.441 11.8493 282.615 7.68911 285.819 5.10012C289.328 2.26454 293.981 1.45051 298.391 1.97511C303.446 2.57637 308.068 4.91256 312.216 7.73831C316.219 10.3814 319.901 13.4749 323.187 16.9571C326.13 20.1799 328.623 24.0214 329.42 28.3581C330.143 32.2992 329.591 36.6665 327.241 40.0052C325.995 41.7165 324.325 43.0804 322.393 43.9655C320.378 44.9466 318.229 45.6479 316.277 46.757C313.326 48.4341 310.458 51.9115 311.382 55.5303C311.58 56.3208 311.971 57.0509 312.521 57.6562C313.181 58.3832 314.373 57.4226 313.711 56.6937C312.548 55.4135 312.593 53.7062 313.213 52.1778C313.95 50.4555 315.255 49.0325 316.914 48.1419C318.958 46.9836 321.213 46.2686 323.308 45.2135C325.312 44.2496 327.052 42.8199 328.379 41.0459C330.886 37.5921 331.635 33.0972 331.067 28.939C330.452 24.4393 328.12 20.3504 325.197 16.9238C322.017 13.1948 318.109 10.0383 314.118 7.2026C309.835 4.15986 305.103 1.58744 299.867 0.657037C295.328 -0.149478 290.409 0.347064 286.44 2.79971C282.735 5.08909 279.894 9.02728 279.611 13.4278C279.51 15.4301 279.948 17.4229 280.882 19.2014C281.815 20.9798 283.209 22.4795 284.921 23.5462C286.677 24.5885 288.72 25.0576 290.759 24.8874C292.94 24.749 295.123 24.0869 297.317 24.2707C298.31 24.3305 299.257 24.7096 300.013 25.3507C300.763 25.9903 301.657 24.7516 300.913 24.1171Z" fill="#2F2E41"/>
</g>
<defs>
<clipPath id="clip0_37_2332">
<rect width="379" height="303" fill="white" transform="matrix(-1 0 0 1 379 0.300049)"/>
</clipPath>
</defs>
</svg>
