<svg width="711" height="327" viewBox="0 0 711 327" fill="none" xmlns="http://www.w3.org/2000/svg">
<path d="M526.712 140.407V79.7012C526.712 73.6483 531.437 68.7242 537.244 68.7242H575.349C581.157 68.7242 585.882 73.6483 585.882 79.7012V140.407C585.882 146.46 581.157 151.384 575.349 151.384H537.244C531.437 151.384 526.712 146.46 526.712 140.407Z" fill="#304375"/>
<path d="M546.225 94.9655H566.368V89.7172H546.225V94.9655Z" fill="#3F3D56"/>
<path d="M551.261 85.781H561.333V68.7242H551.261V85.781Z" fill="#3F3D56"/>
<path d="M551.261 151.384H561.333V134.327H551.261V151.384Z" fill="#3F3D56"/>
<path d="M499.645 142.861H441.397C435.589 142.861 430.864 137.937 430.864 131.884V92.1706C430.864 86.1177 435.589 81.1936 441.397 81.1936H499.645C505.452 81.1936 510.177 86.1177 510.177 92.1706V131.884C510.177 137.937 505.452 142.861 499.645 142.861Z" fill="#304375"/>
<path d="M481.851 89.722H461.708V94.9703H481.851V89.722Z" fill="#3F3D56"/>
<path d="M447.23 117.275V106.779H430.864V117.275H447.23Z" fill="#3F3D56"/>
<path d="M510.177 117.275V106.779H493.811V117.275H510.177Z" fill="#3F3D56"/>
<path d="M27.1497 256.379L17.4258 197.262C13.1049 170.993 31.76 146.685 57.2984 145.307L195.922 137.824L229.006 80.9955C233.392 73.4616 241.234 68.8609 249.689 68.8609H349.294C357.123 68.8609 363.738 74.912 364.754 83.0028L367.284 128.474L615.609 129.249L646.848 236.543L617.852 235.07L619.339 267.614L581.421 269.164L568.781 231.915C566.401 224.9 555.971 216.992 545.131 210.375C520.828 195.541 489.605 200.302 471.214 222.532C466.875 227.776 463.842 233.24 462.995 238.364L457.258 273.038L179.193 268.389L142.75 215.259C131.983 203.048 81.1569 198.563 76.5795 215.259L49.0826 257.541L27.1497 256.379Z" fill="#E6E6E6"/>
<path d="M329.375 103.44L337.556 143.635L233.468 145.96L255.452 96.7675C257.446 92.3049 261.824 89.5342 266.543 89.7481L316.421 92.0082C322.735 92.2943 328.064 96.9967 329.375 103.44Z" fill="white"/>
<path d="M219.342 142.861L240.159 87.0702L234.709 81.3898L200.754 135.112L207.654 145.96L219.342 142.861Z" fill="white"/>
<path d="M517.481 324.179C544.582 324.179 566.551 301.283 566.551 273.038C566.551 244.794 544.582 221.897 517.481 221.897C490.38 221.897 468.411 244.794 468.411 273.038C468.411 301.283 490.38 324.179 517.481 324.179Z" fill="#3F3D56"/>
<path d="M483.652 273.038C483.652 253.598 498.827 237.782 517.481 237.782C536.134 237.782 551.309 253.598 551.309 273.038C551.309 292.479 536.134 308.295 517.481 308.295C498.827 308.295 483.652 292.479 483.652 273.038ZM484.395 273.038C484.395 292.051 499.237 307.52 517.481 307.52C535.724 307.52 550.566 292.051 550.566 273.038C550.566 254.025 535.724 238.557 517.481 238.557C499.237 238.557 484.395 254.025 484.395 273.038Z" fill="white"/>
<path d="M488.485 273.038C488.485 289.728 501.467 303.258 517.481 303.258C533.495 303.258 546.477 289.728 546.477 273.038C546.477 256.348 533.495 242.818 517.481 242.818C501.467 242.818 488.485 256.348 488.485 273.038ZM536.329 265.802L531.192 269.291L529.218 266.135L536.329 265.802ZM528.508 283.55L529.876 280.062L534.184 285.968L528.508 283.55ZM515.353 295.509L518.968 289.118V295.509H515.353ZM515.353 258.508L518.968 252.117V258.508H515.353ZM499.291 285.968L503.599 280.062L504.967 283.55L499.291 285.968ZM497.146 265.802L504.257 266.135L502.283 269.291L497.146 265.802Z" fill="#E6E6E6"/>
<path d="M105.588 324.179C132.689 324.179 154.658 301.283 154.658 273.038C154.658 244.794 132.689 221.897 105.588 221.897C78.4871 221.897 56.5176 244.794 56.5176 273.038C56.5176 301.283 78.4871 324.179 105.588 324.179Z" fill="#3F3D56"/>
<path d="M71.7588 273.038C71.7588 253.598 86.9342 237.782 105.588 237.782C124.241 237.782 139.416 253.598 139.416 273.038C139.416 292.479 124.241 308.295 105.588 308.295C86.9342 308.295 71.7588 292.479 71.7588 273.038ZM72.5023 273.038C72.5023 292.051 87.3441 307.52 105.588 307.52C123.831 307.52 138.673 292.051 138.673 273.038C138.673 254.025 123.831 238.557 105.588 238.557C87.3441 238.557 72.5023 254.025 72.5023 273.038Z" fill="white"/>
<path d="M76.5918 273.038C76.5918 289.728 89.5738 303.258 105.588 303.258C121.602 303.258 134.584 289.728 134.584 273.038C134.584 256.348 121.602 242.818 105.588 242.818C89.5738 242.818 76.5918 256.348 76.5918 273.038ZM124.436 265.802L119.299 269.291L117.325 266.135L124.436 265.802ZM116.615 283.55L117.983 280.062L122.291 285.968L116.615 283.55ZM103.46 295.509L107.075 289.118V295.509H103.46ZM103.46 258.508L107.075 252.117V258.508H103.46ZM87.3977 285.968L91.7056 280.062L93.0738 283.55L87.3977 285.968ZM85.2525 265.802L92.3638 266.135L90.39 269.291L85.2525 265.802Z" fill="#E6E6E6"/>
<path d="M310.419 164.169H338.671V157.971H310.419V164.169Z" fill="#3F3D56"/>
<path d="M708.636 285.858C708.373 285.018 706.377 285.388 706.185 284.637C705.994 283.888 707.91 283.26 709.378 281.151C709.643 280.771 711.313 278.374 710.672 277.366C709.459 275.455 701.016 280.214 698.989 277.543C698.544 276.957 698.361 275.951 697.036 274.078C696.509 273.333 696.171 272.973 695.767 272.984C695.194 272.999 694.989 273.747 694.088 275.101C692.736 277.131 692.249 276.876 691.358 278.54C690.697 279.775 690.619 280.565 690.143 280.611C689.468 280.677 689.189 279.139 688.365 279.079C687.525 279.019 686.683 280.538 686.266 281.725C685.483 283.953 685.968 285.656 686.075 287.353C686.192 289.197 685.918 291.897 683.995 295.362L665.86 325.475C669.755 319.336 680.81 302.596 685.265 296.456C686.55 294.683 687.932 292.903 690.059 292.569C692.107 292.246 694.598 293.302 698.076 293.241C698.482 293.233 699.612 293.198 699.887 292.574C700.114 292.058 699.55 291.609 699.755 291.124C700.031 290.473 701.27 290.752 702.958 290.32C704.149 290.015 704.958 289.512 705.653 289.079C705.863 288.948 708.987 286.976 708.636 285.858Z" fill="#F2F2F2"/>
<path d="M661.138 292.888C660.666 292.781 660.264 293.908 659.855 293.79C659.448 293.671 659.705 292.511 659.135 291.151C659.033 290.906 658.385 289.36 657.726 289.397C656.476 289.466 656.281 295.158 654.439 295.424C654.034 295.482 653.507 295.286 652.243 295.423C651.74 295.478 651.473 295.547 651.362 295.757C651.203 296.054 651.496 296.375 651.874 297.227C652.44 298.504 652.18 298.68 652.706 299.615C653.097 300.31 653.446 300.577 653.331 300.835C653.167 301.198 652.363 300.897 652.097 301.302C651.825 301.714 652.298 302.583 652.737 303.139C653.56 304.182 654.502 304.425 655.332 304.86C656.234 305.333 657.427 306.252 658.504 308.235L667.452 326.2C665.685 322.436 660.992 311.951 659.385 307.901C658.921 306.732 658.482 305.512 658.938 304.327C659.377 303.187 660.593 302.217 661.567 300.42C661.681 300.211 661.991 299.622 661.776 299.302C661.599 299.036 661.224 299.196 661.055 298.951C660.828 298.622 661.317 298.069 661.601 297.08C661.801 296.383 661.797 295.824 661.794 295.344C661.793 295.199 661.765 293.032 661.138 292.888Z" fill="#F2F2F2"/>
<path d="M670.065 297.272L670.346 294.565L670.519 294.395C671.317 293.609 671.816 292.776 672.004 291.919C672.033 291.783 672.056 291.645 672.08 291.504C672.173 290.948 672.289 290.256 672.803 289.538C673.09 289.137 673.85 288.232 674.634 288.549C674.845 288.631 674.988 288.774 675.087 288.926C675.112 288.899 675.138 288.873 675.165 288.845C675.504 288.502 675.741 288.376 675.969 288.255C676.144 288.162 676.325 288.066 676.631 287.811C676.766 287.699 676.873 287.598 676.964 287.513C677.239 287.258 677.591 286.958 678.073 287.077C678.584 287.222 678.759 287.73 678.875 288.066C679.082 288.666 679.146 289.078 679.189 289.352C679.204 289.452 679.221 289.564 679.235 289.601C679.347 289.894 680.75 289.97 681.278 290.002C682.465 290.069 683.492 290.127 683.739 290.974C683.917 291.58 683.547 292.241 682.61 292.991C682.318 293.224 682.026 293.385 681.772 293.506C681.928 293.66 682.053 293.869 682.06 294.155C682.077 294.831 681.412 295.349 680.083 295.699C679.753 295.787 679.309 295.903 678.728 295.874C678.454 295.86 678.214 295.816 678.01 295.775C677.979 295.897 677.923 296.023 677.823 296.143C677.527 296.495 677.049 296.585 676.401 296.386C675.685 296.178 675.119 295.896 674.62 295.647C674.185 295.431 673.809 295.246 673.493 295.195C672.907 295.11 672.36 295.487 671.705 295.989L670.065 297.272Z" fill="#F2F2F2"/>
<path d="M674.747 281.856L672.163 282.259L671.962 282.128C671.029 281.523 670.13 281.231 669.287 281.259C669.153 281.264 669.019 281.276 668.883 281.288C668.342 281.335 667.671 281.393 666.874 281.058C666.429 280.87 665.397 280.333 665.491 279.463C665.514 279.229 665.611 279.048 665.726 278.91C665.696 278.891 665.665 278.872 665.631 278.852C665.227 278.598 665.051 278.391 664.881 278.192C664.75 278.038 664.615 277.88 664.3 277.636C664.162 277.529 664.041 277.446 663.94 277.376C663.632 277.164 663.265 276.885 663.253 276.369C663.258 275.817 663.685 275.512 663.968 275.31C664.472 274.948 664.838 274.779 665.081 274.667C665.17 274.627 665.27 274.58 665.301 274.557C665.545 274.37 665.26 272.936 665.155 272.396C664.916 271.182 664.71 270.132 665.433 269.668C665.951 269.336 666.658 269.54 667.592 270.295C667.882 270.53 668.106 270.784 668.282 271.01C668.385 270.813 668.548 270.634 668.811 270.554C669.434 270.365 670.084 270.904 670.746 272.155C670.911 272.466 671.132 272.884 671.252 273.478C671.308 273.757 671.328 274.01 671.342 274.226C671.463 274.226 671.594 274.251 671.731 274.322C672.133 274.531 672.338 274.989 672.318 275.693C672.306 276.468 672.187 277.11 672.083 277.676C671.993 278.17 671.917 278.596 671.95 278.927C672.019 279.54 672.508 279.995 673.14 280.528L674.747 281.856Z" fill="#F2F2F2"/>
<path d="M675.095 273.771L675.376 271.064L675.549 270.894C676.347 270.108 676.846 269.275 677.033 268.418C677.063 268.282 677.086 268.144 677.11 268.004C677.203 267.447 677.319 266.755 677.833 266.037C678.12 265.636 678.88 264.732 679.664 265.048C679.875 265.13 680.018 265.273 680.117 265.425C680.142 265.398 680.168 265.372 680.195 265.344C680.533 265.001 680.77 264.875 680.998 264.754C681.174 264.661 681.355 264.565 681.661 264.31C681.796 264.198 681.903 264.097 681.994 264.013C682.269 263.757 682.621 263.457 683.103 263.576C683.613 263.721 683.788 264.229 683.905 264.565C684.112 265.165 684.176 265.577 684.218 265.851C684.234 265.951 684.251 266.063 684.265 266.1C684.376 266.393 685.78 266.469 686.308 266.501C687.495 266.568 688.522 266.626 688.769 267.473C688.946 268.079 688.577 268.74 687.64 269.49C687.348 269.723 687.056 269.884 686.801 270.005C686.958 270.159 687.082 270.369 687.09 270.654C687.107 271.33 686.442 271.849 685.113 272.198C684.783 272.286 684.339 272.402 683.758 272.373C683.484 272.359 683.244 272.315 683.04 272.274C683.009 272.396 682.953 272.522 682.852 272.642C682.557 272.995 682.079 273.084 681.431 272.885C680.715 272.678 680.149 272.395 679.65 272.146C679.214 271.93 678.838 271.745 678.523 271.694C677.937 271.609 677.39 271.986 676.735 272.489L675.095 273.771Z" fill="#F2F2F2"/>
<path d="M666.718 325.629L666.261 325.159L665.626 325.089C665.629 325.026 665.625 324.881 665.62 324.654C665.596 323.409 665.52 319.619 666.026 313.797C666.38 309.733 666.971 305.607 667.782 301.533C668.595 297.452 669.439 294.416 670.117 291.976C670.628 290.135 671.144 288.389 671.648 286.689C672.993 282.145 674.262 277.854 675.049 272.959C675.225 271.866 675.59 269.591 674.842 266.906C674.408 265.349 673.665 263.883 672.632 262.551L673.631 261.71C674.771 263.182 675.593 264.805 676.075 266.534C676.904 269.511 676.506 271.99 676.315 273.181C675.515 278.162 674.232 282.495 672.874 287.082C672.373 288.777 671.858 290.515 671.349 292.348C670.678 294.766 669.842 297.775 669.039 301.804C668.237 305.829 667.654 309.904 667.304 313.917C666.805 319.666 666.88 323.399 666.904 324.625C666.917 325.28 666.92 325.417 666.718 325.629Z" fill="#F2F2F2"/>
<path d="M669.891 264.092C669.839 264.08 669.788 264.066 669.736 264.05C668.682 263.742 667.837 262.847 667.222 261.39C666.935 260.705 666.867 259.984 666.732 258.546C666.711 258.324 666.617 257.202 666.732 255.715C666.807 254.743 666.907 254.353 667.161 254.047C667.443 253.705 667.822 253.51 668.224 253.411C668.234 253.283 668.275 253.157 668.355 253.038C668.685 252.543 669.237 252.746 669.537 252.852C669.688 252.909 669.876 252.981 670.088 253.018C670.42 253.078 670.619 253.017 670.92 252.926C671.207 252.839 671.565 252.731 672.06 252.74C673.035 252.754 673.757 253.211 673.995 253.361C675.25 254.147 675.683 255.4 676.184 256.851C676.283 257.141 676.614 258.193 676.691 259.546C676.746 260.523 676.624 260.923 676.483 261.208C676.195 261.796 675.755 262.068 674.662 262.642C673.52 263.242 672.947 263.543 672.478 263.697C671.385 264.055 670.698 264.279 669.891 264.092Z" fill="#F2F2F2"/>
<path d="M338.492 318.644L348.815 318.643L353.726 277.145L338.49 277.146L338.492 318.644Z" fill="#FFB6B6"/>
<path d="M373.86 318.4C374.182 318.964 374.351 320.785 374.351 321.441C374.351 323.458 372.783 325.093 370.848 325.093L338.878 325.093C337.558 325.093 336.488 323.978 336.488 322.602V321.215C336.488 321.215 334.907 317.046 338.163 311.907C338.163 311.907 342.209 315.931 348.256 309.628L350.039 306.262L362.947 316.1L370.102 317.018C371.667 317.219 373.055 316.987 373.86 318.4Z" fill="#8B99BA"/>
<path d="M292.111 318.644L302.435 318.643L307.345 277.145L292.109 277.146L292.111 318.644Z" fill="#FFB6B6"/>
<path d="M327.479 318.4C327.801 318.964 327.971 320.785 327.971 321.441C327.971 323.458 326.402 325.093 324.467 325.093L292.497 325.093C291.177 325.093 290.107 323.978 290.107 322.602V321.215C290.107 321.215 288.526 317.046 291.782 311.907C291.782 311.907 295.828 315.931 301.875 309.628L303.659 306.262L316.566 316.1L323.721 317.018C325.286 317.219 326.674 316.987 327.479 318.4Z" fill="#8B99BA"/>
<path d="M336.857 35.2825L338.817 54.3455L315.953 52.303L319.873 34.6017L336.857 35.2825Z" fill="#FFB6B6"/>
<path opacity="0.1" d="M336.857 35.2825L338.817 54.3455L315.953 52.303L319.873 34.6017L336.857 35.2825Z" fill="black"/>
<path d="M328.691 37.6653C336.989 37.6653 343.716 30.6546 343.716 22.0065C343.716 13.3584 336.989 6.34766 328.691 6.34766C320.393 6.34766 313.667 13.3584 313.667 22.0065C313.667 30.6546 320.393 37.6653 328.691 37.6653Z" fill="#FFB6B6"/>
<path d="M338.49 46.516L363.64 61.8344L355.4 103.364L361.027 159.192L357.108 296.036L332.938 293.313L329.671 176.893L310.727 297.398H287.256L291.13 167.361L302.888 112.215L295.702 52.303L317.586 45.1544L338.49 46.516Z" fill="#8B99BA"/>
<path d="M339.47 26.4318C339.47 26.4318 340.777 21.6661 343.716 22.0065C346.656 22.3469 347.309 19.6236 346.656 18.262C346.003 16.9003 344.696 10.0921 344.696 10.0921C344.696 10.0921 345.349 5.32639 341.43 4.64558C337.51 3.96476 336.204 3.28394 335.55 1.9223C334.897 0.560662 325.098 -0.800973 321.832 1.24148C318.566 3.28394 315.953 7.20267 313.667 8.307C311.38 9.41132 309.42 11.4538 310.727 14.8579C312.033 18.262 313.928 24.9197 313.928 24.9197C313.928 24.9197 317.259 23.7085 317.913 25.751C318.566 27.7934 315.953 25.0702 319.219 19.6236C322.485 14.1771 322.485 8.7305 327.712 10.773C332.938 12.8154 338.817 12.1346 338.164 16.2195C337.51 20.3044 339.47 26.4318 339.47 26.4318Z" fill="#8B99BA"/>
<path d="M350.671 146.979C347.527 150.448 346.696 154.952 348.815 157.037C350.934 159.122 355.2 157.999 358.345 154.528C359.62 153.159 360.561 151.492 361.091 149.666L374.236 134.789L367.405 128.509L355.172 143.842C353.453 144.498 351.91 145.574 350.671 146.979Z" fill="#FFB6B6"/>
<path d="M363.376 61.494L385.511 100.798L388.791 118.741L367.475 146.937L358.457 134.975L369.115 118.741L351.898 87.1269L363.376 61.494Z" fill="#8B99BA"/>
<path d="M301.14 143.319V96.9777C301.14 89.9145 306.653 84.1686 313.43 84.1686H381.399C388.177 84.1686 393.69 89.9145 393.69 96.9777V143.319C393.69 150.382 388.177 156.128 381.399 156.128H313.43C306.653 156.128 301.14 150.382 301.14 143.319Z" fill="#304375"/>
<path d="M334.193 113.417H357.698V107.293H334.193V113.417Z" fill="#3F3D56"/>
<path d="M355.772 155.717V143.469H336.674V155.717H355.772Z" fill="#3F3D56"/>
<path d="M356.668 96.8275V84.5791H337.571V96.8275H356.668Z" fill="#3F3D56"/>
<path d="M308.018 138.128C311.163 141.598 311.994 146.101 309.875 148.186C307.755 150.271 303.489 149.149 300.344 145.677C299.07 144.308 298.128 142.641 297.599 140.816L284.454 125.939L291.284 119.659L303.517 134.992C305.236 135.647 306.78 136.723 308.018 138.128Z" fill="#FFB6B6"/>
<path d="M295.314 52.6434L273.178 91.9471L269.899 109.89L291.215 138.086L300.233 126.124L289.575 109.89L306.791 78.2762L295.314 52.6434Z" fill="#8B99BA"/>
<path d="M20.0742 240.055C31.1609 240.055 40.1484 231.903 40.1484 221.846C40.1484 211.789 31.1609 203.636 20.0742 203.636C8.98753 203.636 0 211.789 0 221.846C0 231.903 8.98753 240.055 20.0742 240.055Z" fill="#E6E6E6"/>
</svg>
