<svg width="284" height="142" viewBox="0 0 284 142" fill="none" xmlns="http://www.w3.org/2000/svg">
<g clip-path="url(#clip0_33_1074)">
<path d="M230.583 61.0719V34.6294C230.583 31.9928 232.519 29.848 234.898 29.848H250.507C252.886 29.848 254.822 31.9928 254.822 34.6294V61.0719C254.822 63.7084 252.886 65.8533 250.507 65.8533H234.898C232.519 65.8533 230.583 63.7084 230.583 61.0719Z" fill="#304375"/>
<path d="M238.577 41.2782H246.828V38.9921H238.577V41.2782Z" fill="#3F3D56"/>
<path d="M240.639 37.2776H244.765V29.848H240.639V37.2776Z" fill="#3F3D56"/>
<path d="M240.639 65.8533H244.765V58.4236H240.639V65.8533Z" fill="#3F3D56"/>
<path d="M219.495 62.1406H195.635C193.256 62.1406 191.32 59.9957 191.32 57.3592V40.0609C191.32 37.4243 193.256 35.2795 195.635 35.2795H219.495C221.874 35.2795 223.81 37.4243 223.81 40.0609V57.3592C223.81 59.9957 221.874 62.1406 219.495 62.1406Z" fill="#304375"/>
<path d="M212.207 38.9943H203.955V41.2804H212.207V38.9943Z" fill="#3F3D56"/>
<path d="M198.025 50.9961V46.424H191.32V50.9961H198.025Z" fill="#3F3D56"/>
<path d="M223.81 50.996V46.424H217.106V50.996H223.81Z" fill="#3F3D56"/>
<path d="M25.9432 111.587L21.9599 85.8369C20.1899 74.3947 27.8317 63.8065 38.2932 63.206L95.0787 59.9467L108.631 35.1931C110.428 31.9115 113.64 29.9075 117.104 29.9075H157.906C161.113 29.9075 163.823 32.5433 164.239 36.0675L165.275 55.8741L266.999 56.2117L279.795 102.947L267.918 102.305L268.527 116.481L252.994 117.156L247.816 100.931C246.841 97.8757 242.569 94.4308 238.128 91.5486C228.173 85.0874 215.383 87.1612 207.849 96.8441C206.072 99.1283 204.829 101.508 204.482 103.74L202.132 118.844L88.2261 116.819L73.2976 93.6762C68.887 88.3572 48.0666 86.4034 46.1915 93.6762L34.9277 112.093L25.9432 111.587Z" fill="#E6E6E6"/>
<path d="M149.747 44.9697L153.098 62.4781L110.459 63.4906L119.465 42.0632C120.282 40.1193 122.075 38.9125 124.008 39.0056L144.44 39.9901C147.027 40.1147 149.209 42.163 149.747 44.9697Z" fill="white"/>
<path d="M104.673 62.1405L113.2 37.8392L110.968 35.3649L97.0585 58.7653L99.8847 63.4906L104.673 62.1405Z" fill="white"/>
<path d="M226.802 141.12C237.903 141.12 246.903 131.146 246.903 118.844C246.903 106.541 237.903 96.5674 226.802 96.5674C215.7 96.5674 206.701 106.541 206.701 118.844C206.701 131.146 215.7 141.12 226.802 141.12Z" fill="#3F3D56"/>
<path d="M212.944 118.844C212.944 110.376 219.161 103.487 226.802 103.487C234.443 103.487 240.659 110.376 240.659 118.844C240.659 127.312 234.443 134.201 226.802 134.201C219.161 134.201 212.944 127.312 212.944 118.844ZM213.249 118.844C213.249 127.125 219.329 133.863 226.802 133.863C234.275 133.863 240.355 127.125 240.355 118.844C240.355 110.562 234.275 103.824 226.802 103.824C219.329 103.824 213.249 110.562 213.249 118.844Z" fill="white"/>
<path d="M214.924 118.844C214.924 126.113 220.242 132.007 226.802 132.007C233.362 132.007 238.68 126.113 238.68 118.844C238.68 111.574 233.362 105.68 226.802 105.68C220.242 105.68 214.924 111.574 214.924 118.844ZM234.523 115.692L232.418 117.212L231.61 115.837L234.523 115.692ZM231.319 123.422L231.879 121.903L233.644 124.476L231.319 123.422ZM225.93 128.632L227.411 125.848V128.632H225.93ZM225.93 112.515L227.411 109.731V112.515H225.93ZM219.35 124.476L221.115 121.903L221.676 123.422L219.35 124.476ZM218.472 115.692L221.385 115.837L220.576 117.212L218.472 115.692Z" fill="#E6E6E6"/>
<path d="M58.0745 141.12C69.176 141.12 78.1755 131.146 78.1755 118.844C78.1755 106.541 69.176 96.5674 58.0745 96.5674C46.9729 96.5674 37.9734 106.541 37.9734 118.844C37.9734 131.146 46.9729 141.12 58.0745 141.12Z" fill="#3F3D56"/>
<path d="M44.2169 118.844C44.2169 110.376 50.4334 103.487 58.0745 103.487C65.7156 103.487 71.932 110.376 71.932 118.844C71.932 127.312 65.7156 134.201 58.0745 134.201C50.4334 134.201 44.2169 127.312 44.2169 118.844ZM44.5215 118.844C44.5215 127.125 50.6013 133.863 58.0745 133.863C65.5477 133.863 71.6275 127.125 71.6275 118.844C71.6275 110.562 65.5477 103.824 58.0745 103.824C50.6013 103.824 44.5215 110.562 44.5215 118.844Z" fill="white"/>
<path d="M46.1965 118.844C46.1965 126.113 51.5145 132.007 58.0744 132.007C64.6344 132.007 69.9524 126.113 69.9524 118.844C69.9524 111.574 64.6344 105.68 58.0744 105.68C51.5145 105.68 46.1965 111.574 46.1965 118.844ZM65.7955 115.692L63.691 117.212L62.8824 115.837L65.7955 115.692ZM62.5916 123.422L63.152 121.903L64.9167 124.476L62.5916 123.422ZM57.2027 128.632L58.6836 125.848V128.632H57.2027ZM57.2027 112.515L58.6836 109.731V112.515H57.2027ZM50.623 124.476L52.3877 121.903L52.9482 123.422L50.623 124.476ZM49.7443 115.692L52.6574 115.837L51.8488 117.212L49.7443 115.692Z" fill="#E6E6E6"/>
<path d="M141.981 71.4223H153.555V68.7222H141.981V71.4223Z" fill="#3F3D56"/>
<path d="M285.649 127.49C285.456 127.443 285.291 127.934 285.124 127.883C284.957 127.831 285.062 127.326 284.829 126.733C284.787 126.626 284.522 125.953 284.251 125.969C283.739 125.999 283.66 128.479 282.905 128.595C282.739 128.62 282.523 128.534 282.006 128.594C281.799 128.618 281.69 128.648 281.644 128.74C281.58 128.869 281.7 129.009 281.854 129.38C282.086 129.936 281.979 130.013 282.195 130.42C282.355 130.723 282.498 130.839 282.451 130.951C282.384 131.11 282.054 130.979 281.945 131.155C281.834 131.334 282.028 131.713 282.208 131.955C282.545 132.409 282.931 132.515 283.271 132.705C283.64 132.911 284.129 133.311 284.57 134.175L288.236 142C287.512 140.361 285.589 135.794 284.931 134.029C284.741 133.52 284.561 132.989 284.748 132.473C284.928 131.976 285.426 131.554 285.825 130.771C285.872 130.68 285.998 130.423 285.911 130.284C285.838 130.168 285.685 130.237 285.615 130.131C285.522 129.988 285.723 129.747 285.839 129.316C285.921 129.012 285.919 128.769 285.918 128.56C285.917 128.496 285.906 127.553 285.649 127.49Z" fill="#F2F2F2"/>
<path d="M0 141.245C0 141.468 0.281805 141.647 0.63273 141.647H302.688C303.039 141.647 303.321 141.468 303.321 141.245C303.321 141.022 303.039 140.843 302.688 140.843H0.63273C0.281805 140.843 0 141.022 0 141.245Z" fill="#CCCCCC"/>
<path d="M153.481 138.709L157.71 138.708L159.721 120.632L153.48 120.633L153.481 138.709Z" fill="#FFB6B6"/>
<path d="M167.969 138.603C168.101 138.848 168.17 139.641 168.17 139.927C168.17 140.806 167.528 141.518 166.735 141.518L153.639 141.518C153.098 141.518 152.66 141.032 152.66 140.433V139.829C152.66 139.829 152.012 138.013 153.346 135.774C153.346 135.774 155.004 137.527 157.481 134.782L158.211 133.315L163.499 137.601L166.43 138.001C167.071 138.088 167.639 137.987 167.969 138.603Z" fill="#8B99BA"/>
<path d="M134.482 138.709L138.71 138.708L140.722 120.632L134.481 120.633L134.482 138.709Z" fill="#FFB6B6"/>
<path d="M148.97 138.603C149.102 138.848 149.171 139.641 149.171 139.927C149.171 140.806 148.528 141.518 147.736 141.518L134.64 141.518C134.099 141.518 133.661 141.032 133.661 140.433V139.829C133.661 139.829 133.013 138.013 134.347 135.774C134.347 135.774 136.004 137.527 138.481 134.782L139.212 133.315L144.499 137.601L147.43 138.001C148.072 138.088 148.64 137.987 148.97 138.603Z" fill="#8B99BA"/>
<path d="M152.811 15.2814L153.614 23.5848L144.248 22.6952L145.854 14.9848L152.811 15.2814Z" fill="#FFB6B6"/>
<path opacity="0.1" d="M152.811 15.2814L153.614 23.5848L144.248 22.6952L145.854 14.9848L152.811 15.2814Z" fill="black"/>
<path d="M149.466 16.3192C152.866 16.3192 155.621 13.2655 155.621 9.49852C155.621 5.73154 152.866 2.6778 149.466 2.6778C146.067 2.6778 143.312 5.73154 143.312 9.49852C143.312 13.2655 146.067 16.3192 149.466 16.3192Z" fill="#FFB6B6"/>
<path d="M153.48 20.1745L163.783 26.8469L160.407 44.9367L162.712 69.254L161.107 128.861L151.206 127.675L149.868 76.9644L142.108 129.454H132.493L134.08 72.8127L138.896 48.7919L135.953 22.6952L144.917 19.5814L153.48 20.1745Z" fill="#8B99BA"/>
<path d="M153.882 11.4261C153.882 11.4261 154.417 9.35027 155.621 9.49855C156.825 9.64682 157.093 8.46061 156.825 7.8675C156.558 7.2744 156.022 4.30886 156.022 4.30886C156.022 4.30886 156.29 2.23299 154.684 1.93644C153.079 1.63989 152.544 1.34333 152.276 0.750227C152.009 0.157119 147.995 -0.435985 146.657 0.453673C145.319 1.34333 144.248 3.05026 143.312 3.53129C142.375 4.01231 141.572 4.90197 142.107 6.38474C142.643 7.8675 143.419 10.7675 143.419 10.7675C143.419 10.7675 144.783 10.2399 145.051 11.1296C145.319 12.0193 144.248 10.833 145.586 8.46061C146.924 6.08819 146.924 3.71576 149.065 4.60542C151.206 5.49508 153.614 5.19853 153.347 6.97785C153.079 8.75717 153.882 11.4261 153.882 11.4261Z" fill="#8B99BA"/>
<path d="M158.47 63.9342C157.182 65.4456 156.842 67.4072 157.71 68.3155C158.578 69.2238 160.325 68.7347 161.614 67.2226C162.136 66.6263 162.521 65.9002 162.738 65.105L168.123 58.6248L165.325 55.8894L160.314 62.5681C159.61 62.8538 158.977 63.3222 158.47 63.9342Z" fill="#FFB6B6"/>
<path d="M163.674 26.6986L172.742 43.8186L174.085 51.6343L165.354 63.916L161.659 58.7056L166.025 51.6343L158.973 37.8638L163.674 26.6986Z" fill="#8B99BA"/>
<path d="M138.18 62.3401V42.1547C138.18 39.0781 140.438 36.5753 143.215 36.5753H171.058C173.834 36.5753 176.092 39.0781 176.092 42.1547V62.3401C176.092 65.4167 173.834 67.9196 171.058 67.9196H143.215C140.438 67.9196 138.18 65.4167 138.18 62.3401Z" fill="#304375"/>
<path d="M151.72 49.3156H161.349V46.648H151.72V49.3156Z" fill="#3F3D56"/>
<path d="M160.56 67.7407V62.4055H152.736V67.7407H160.56Z" fill="#3F3D56"/>
<path d="M160.927 42.0893V36.7542H153.104V42.0893H160.927Z" fill="#3F3D56"/>
<path d="M140.998 60.0791C142.286 61.5905 142.626 63.5521 141.758 64.4603C140.89 65.3686 139.143 64.8795 137.854 63.3674C137.332 62.7712 136.947 62.0451 136.73 61.2498L131.345 54.7696L134.143 52.0342L139.154 58.713C139.858 58.9986 140.491 59.467 140.998 60.0791Z" fill="#FFB6B6"/>
<path d="M135.794 22.8434L126.726 39.9635L125.383 47.7791L134.114 60.0609L137.809 54.8504L133.443 47.7791L140.495 34.0087L135.794 22.8434Z" fill="#8B99BA"/>
<path d="M23.0448 104.477C27.5864 104.477 31.268 100.926 31.268 96.5452C31.268 92.1646 27.5864 88.6135 23.0448 88.6135C18.5033 88.6135 14.8217 92.1646 14.8217 96.5452C14.8217 100.926 18.5033 104.477 23.0448 104.477Z" fill="#E6E6E6"/>
</g>
<defs>
<clipPath id="clip0_33_1074">
<rect width="284" height="142" fill="white"/>
</clipPath>
</defs>
</svg>
