<svg width="272" height="240" viewBox="0 0 272 240" fill="none" xmlns="http://www.w3.org/2000/svg">
<path d="M234.409 22.0668L6.49707 86.306L12.5338 106.35L240.446 42.1106L234.409 22.0668Z" fill="#3F3D56"/>
<path d="M33.7265 178.374L0.13401 66.8374C-0.115035 66.0104 -0.0143034 65.1216 0.41403 64.3666C0.842363 63.6115 1.56321 63.0519 2.41801 62.811L224.805 0.128954C225.66 -0.111163 226.578 -0.013385 227.359 0.400835C228.139 0.815055 228.717 1.51187 228.967 2.33833L258.728 101.152L257.807 101.412L228.046 2.59793C227.867 2.00785 227.454 1.51041 226.897 1.21458C226.34 0.918756 225.684 0.848664 225.073 1.01967L2.68631 63.7017C2.07574 63.8738 1.56085 64.2735 1.25489 64.8129C0.948941 65.3522 0.876991 65.9871 1.05487 66.5778L34.6473 178.115L33.7265 178.374Z" fill="#3F3D56"/>
<path d="M209.506 101.611C208.831 101.611 208.175 101.399 207.635 101.007C207.096 100.615 206.702 100.065 206.512 99.4387L200.878 80.7312C200.647 79.9634 200.741 79.1385 201.139 78.4377C201.537 77.7368 202.205 77.217 202.998 76.9925L222.337 71.5419C223.13 71.3192 223.983 71.4101 224.708 71.7948C225.432 72.1794 225.969 72.8265 226.201 73.5938L231.836 92.3014C232.066 93.0692 231.972 93.894 231.574 94.5949C231.177 95.2958 230.508 95.8155 229.715 96.0401L210.377 101.491C210.094 101.571 209.801 101.611 209.506 101.611Z" fill="#8B99BA"/>
<path d="M33.2072 67.1825C33.1493 66.9903 33.0804 66.8013 33.0009 66.6165C32.4602 65.3469 31.4536 64.3155 30.1745 63.7203C28.8955 63.1251 27.4342 63.0082 26.0714 63.392C24.7086 63.7759 23.5406 64.6333 22.7916 65.7997C22.0427 66.9661 21.7658 68.359 22.014 69.7109C22.0489 69.9082 22.0953 70.1034 22.1531 70.2955C22.5033 71.4519 23.2313 72.4674 24.2281 73.1901C25.2249 73.9127 26.4369 74.3035 27.6825 74.3039C28.2263 74.3051 28.7675 74.2301 29.2891 74.0813C30.7532 73.6674 31.9879 72.7087 32.7224 71.4154C33.4569 70.1222 33.6312 68.5999 33.2072 67.1825ZM29.0205 73.1905C27.7995 73.5333 26.4878 73.3937 25.373 72.8023C24.2583 72.2109 23.4315 71.216 23.0739 70.0357C23.0177 69.8435 22.9728 69.6483 22.9394 69.4511C22.7596 68.3373 23.0052 67.1982 23.6305 66.2468C24.2558 65.2955 25.2178 64.597 26.3368 64.282C27.4557 63.9671 28.655 64.0572 29.7103 64.5355C30.7655 65.0138 31.6046 65.8476 32.0705 66.8809C32.1574 67.0624 32.2296 67.25 32.2864 67.4423C32.6403 68.6235 32.4952 69.8923 31.8828 70.9701C31.2705 72.0478 30.241 72.8464 29.0205 73.1905Z" fill="#8B99BA"/>
<path d="M19.0922 71.1585C18.7853 70.1388 18.8148 69.052 19.1766 68.0493C19.5383 67.0467 20.2143 66.1781 21.1105 65.5647C20.2709 65.5251 19.4337 65.6802 18.6687 66.017C17.9036 66.3538 17.2328 66.8626 16.7122 67.5009C16.1916 68.1393 15.8361 68.8888 15.6755 69.6869C15.515 70.4851 15.5538 71.3088 15.789 72.0895C16.0241 72.8702 16.4486 73.5852 17.0273 74.175C17.6059 74.7648 18.3218 75.2124 19.1154 75.4803C19.909 75.7482 20.7573 75.8288 21.5896 75.7154C22.4219 75.602 23.2142 75.2978 23.9004 74.8281C22.8039 74.7763 21.7515 74.395 20.8896 73.7372C20.0278 73.0794 19.3995 72.178 19.0922 71.1585Z" fill="#8B99BA"/>
<path d="M168.174 94.1513C168.071 93.7963 167.898 93.4642 167.663 93.174C167.428 92.8839 167.137 92.6414 166.805 92.4604C166.473 92.2794 166.108 92.1635 165.729 92.1193C165.351 92.0751 164.968 92.1034 164.601 92.2027L132.762 100.818L129.333 101.746H150.866L154.295 100.818L166.164 97.6076C166.904 97.4065 167.531 96.9296 167.908 96.2816C168.285 95.6336 168.38 94.8674 168.174 94.1513Z" fill="#CCCCCC"/>
<path d="M145.648 87.7165C145.441 87.0004 144.948 86.3934 144.278 86.0288C143.608 85.6643 142.816 85.5721 142.075 85.7726L94.3004 98.6979C93.6328 98.8808 93.0547 99.2885 92.6704 99.8474C92.2862 100.406 92.1209 101.08 92.2046 101.746H104.573L108.006 100.818L143.639 91.1774C144.379 90.9757 145.007 90.4979 145.384 89.849C145.76 89.2002 145.855 88.4332 145.648 87.7165Z" fill="#CCCCCC"/>
<path d="M268.641 100.817H37.0072C36.1171 100.818 35.2638 101.16 34.6345 101.769C34.0051 102.378 33.6511 103.204 33.6501 104.065V236.751C33.6511 237.612 34.0051 238.438 34.6345 239.046C35.2638 239.655 36.1171 239.998 37.0072 239.999H268.641C269.531 239.998 270.385 239.655 271.014 239.046C271.643 238.438 271.997 237.612 271.998 236.751V104.065C271.997 103.204 271.643 102.378 271.014 101.769C270.385 101.16 269.531 100.818 268.641 100.817ZM271.039 236.751C271.039 237.366 270.786 237.956 270.337 238.391C269.887 238.826 269.277 239.071 268.641 239.071H37.0072C36.3713 239.071 35.7615 238.826 35.3119 238.391C34.8622 237.956 34.6095 237.366 34.6093 236.751V104.065C34.6096 103.449 34.8623 102.86 35.3119 102.425C35.7615 101.99 36.3713 101.745 37.0072 101.745H268.641C269.277 101.745 269.887 101.99 270.337 102.425C270.786 102.86 271.039 103.449 271.039 104.065V236.751Z" fill="#3F3D56"/>
<path d="M59.5454 118.912C58.4072 118.912 57.2946 118.585 56.3482 117.973C55.4018 117.362 54.6642 116.492 54.2286 115.475C53.793 114.458 53.6791 113.338 53.9011 112.258C54.1232 111.178 54.6713 110.186 55.4761 109.408C56.2809 108.629 57.3064 108.099 58.4227 107.884C59.539 107.669 60.6961 107.78 61.7477 108.201C62.7993 108.622 63.6981 109.336 64.3304 110.251C64.9628 111.167 65.3003 112.243 65.3003 113.344C65.2985 114.82 64.6917 116.235 63.6128 117.279C62.5339 118.323 61.0712 118.91 59.5454 118.912ZM59.5454 108.705C58.5969 108.705 57.6697 108.977 56.881 109.487C56.0924 109.997 55.4777 110.721 55.1147 111.569C54.7518 112.417 54.6568 113.35 54.8418 114.249C55.0269 115.149 55.4836 115.976 56.1543 116.625C56.825 117.274 57.6795 117.716 58.6098 117.895C59.5401 118.074 60.5044 117.982 61.3807 117.631C62.257 117.279 63.006 116.685 63.5329 115.922C64.0599 115.159 64.3411 114.262 64.3411 113.344C64.3397 112.114 63.834 110.935 62.9349 110.065C62.0359 109.196 60.8169 108.706 59.5454 108.705Z" fill="#8B99BA"/>
<path d="M50.6003 113.344C50.6005 112.282 50.9431 111.247 51.5803 110.382C52.2175 109.517 53.1177 108.867 54.1554 108.52C53.3608 108.255 52.5122 108.177 51.6803 108.294C50.8484 108.41 50.0573 108.717 49.3729 109.189C48.6884 109.661 48.1305 110.284 47.7455 111.007C47.3605 111.73 47.1597 112.531 47.1597 113.344C47.1597 114.158 47.3605 114.959 47.7455 115.682C48.1305 116.405 48.6884 117.028 49.3729 117.5C50.0573 117.972 50.8484 118.279 51.6803 118.395C52.5122 118.512 53.3608 118.434 54.1554 118.169C53.1177 117.822 52.2175 117.171 51.5803 116.307C50.9431 115.442 50.6005 114.406 50.6003 113.344Z" fill="#8B99BA"/>
<path d="M82.8738 179.121C81.7295 179.12 80.6324 178.679 79.8232 177.896C79.0141 177.114 78.5589 176.052 78.5576 174.945V162.419C78.5576 161.312 79.0123 160.25 79.8218 159.466C80.6312 158.683 81.7291 158.244 82.8738 158.244C84.0185 158.244 85.1163 158.683 85.9258 159.466C86.7352 160.25 87.1899 161.312 87.1899 162.419V174.945C87.1886 176.052 86.7335 177.114 85.9243 177.896C85.1152 178.679 84.0181 179.12 82.8738 179.121Z" fill="#8B99BA"/>
<path d="M94.3835 179.121C93.2392 179.12 92.1422 178.679 91.333 177.896C90.5238 177.114 90.0687 176.052 90.0674 174.945V162.419C90.0674 161.312 90.5221 160.25 91.3315 159.466C92.141 158.683 93.2388 158.244 94.3835 158.244C95.5282 158.244 96.6261 158.683 97.4355 159.466C98.245 160.25 98.6997 161.312 98.6997 162.419V174.945C98.6984 176.052 98.2432 177.114 97.4341 177.896C96.6249 178.679 95.5278 179.12 94.3835 179.121Z" fill="#8B99BA"/>
<path d="M105.893 179.121C104.749 179.12 103.652 178.679 102.843 177.896C102.034 177.114 101.578 176.052 101.577 174.945V162.419C101.577 161.312 102.032 160.25 102.841 159.466C103.651 158.683 104.749 158.244 105.893 158.244C107.038 158.244 108.136 158.683 108.945 159.466C109.755 160.25 110.209 161.312 110.209 162.419V174.945C110.208 176.052 109.753 177.114 108.944 177.896C108.135 178.679 107.038 179.12 105.893 179.121Z" fill="#8B99BA"/>
<path d="M123.637 179.121C122.493 179.12 121.396 178.679 120.587 177.896C119.778 177.114 119.323 176.052 119.321 174.945V162.419C119.321 161.312 119.776 160.25 120.585 159.466C121.395 158.683 122.493 158.244 123.637 158.244C124.782 158.244 125.88 158.683 126.689 159.466C127.499 160.25 127.954 161.312 127.954 162.419V174.945C127.952 176.052 127.497 177.114 126.688 177.896C125.879 178.679 124.782 179.12 123.637 179.121Z" fill="#8B99BA"/>
<path d="M135.147 179.121C134.003 179.12 132.906 178.679 132.097 177.896C131.288 177.114 130.832 176.052 130.831 174.945V162.419C130.831 161.312 131.286 160.25 132.095 159.466C132.905 158.683 134.003 158.244 135.147 158.244C136.292 158.244 137.39 158.683 138.199 159.466C139.009 160.25 139.463 161.312 139.463 162.419V174.945C139.462 176.052 139.007 177.114 138.198 177.896C137.389 178.679 136.292 179.12 135.147 179.121Z" fill="#8B99BA"/>
<path d="M146.657 179.121C145.513 179.12 144.416 178.679 143.606 177.896C142.797 177.114 142.342 176.052 142.341 174.945V162.419C142.341 161.312 142.796 160.25 143.605 159.466C144.414 158.683 145.512 158.244 146.657 158.244C147.802 158.244 148.9 158.683 149.709 159.466C150.518 160.25 150.973 161.312 150.973 162.419V174.945C150.972 176.052 150.517 177.114 149.708 177.896C148.898 178.679 147.801 179.12 146.657 179.121Z" fill="#8B99BA"/>
<path d="M164.401 179.121C163.257 179.12 162.16 178.679 161.351 177.896C160.541 177.114 160.086 176.052 160.085 174.945V162.419C160.085 161.312 160.54 160.25 161.349 159.466C162.159 158.683 163.256 158.244 164.401 158.244C165.546 158.244 166.644 158.683 167.453 159.466C168.263 160.25 168.717 161.312 168.717 162.419V174.945C168.716 176.052 168.261 177.114 167.452 177.896C166.643 178.679 165.545 179.12 164.401 179.121Z" fill="#8B99BA"/>
<path d="M175.911 179.121C174.767 179.12 173.67 178.679 172.86 177.896C172.051 177.114 171.596 176.052 171.595 174.945V162.419C171.595 161.312 172.049 160.25 172.859 159.466C173.668 158.683 174.766 158.244 175.911 158.244C177.056 158.244 178.153 158.683 178.963 159.466C179.772 160.25 180.227 161.312 180.227 162.419V174.945C180.226 176.052 179.771 177.114 178.961 177.896C178.152 178.679 177.055 179.12 175.911 179.121Z" fill="#8B99BA"/>
<path d="M187.421 179.121C186.276 179.12 185.179 178.679 184.37 177.896C183.561 177.114 183.106 176.052 183.104 174.945V162.419C183.104 161.312 183.559 160.25 184.369 159.466C185.178 158.683 186.276 158.244 187.421 158.244C188.565 158.244 189.663 158.683 190.473 159.466C191.282 160.25 191.737 161.312 191.737 162.419V174.945C191.736 176.052 191.28 177.114 190.471 177.896C189.662 178.679 188.565 179.12 187.421 179.121Z" fill="#8B99BA"/>
<path d="M205.165 179.121C204.021 179.12 202.924 178.679 202.115 177.896C201.305 177.114 200.85 176.052 200.849 174.945V162.419C200.849 161.312 201.304 160.25 202.113 159.466C202.922 158.683 204.02 158.244 205.165 158.244C206.31 158.244 207.408 158.683 208.217 159.466C209.026 160.25 209.481 161.312 209.481 162.419V174.945C209.48 176.052 209.025 177.114 208.216 177.896C207.406 178.679 206.309 179.12 205.165 179.121Z" fill="#8B99BA"/>
<path d="M216.675 179.121C215.53 179.12 214.433 178.679 213.624 177.896C212.815 177.114 212.36 176.052 212.359 174.945V162.419C212.359 161.312 212.813 160.25 213.623 159.466C214.432 158.683 215.53 158.244 216.675 158.244C217.82 158.244 218.917 158.683 219.727 159.466C220.536 160.25 220.991 161.312 220.991 162.419V174.945C220.99 176.052 220.535 177.114 219.725 177.896C218.916 178.679 217.819 179.12 216.675 179.121Z" fill="#8B99BA"/>
<path d="M228.185 179.121C227.04 179.12 225.943 178.679 225.134 177.896C224.325 177.114 223.87 176.052 223.868 174.945V162.419C223.868 161.312 224.323 160.25 225.133 159.466C225.942 158.683 227.04 158.244 228.185 158.244C229.329 158.244 230.427 158.683 231.237 159.466C232.046 160.25 232.501 161.312 232.501 162.419V174.945C232.499 176.052 232.044 177.114 231.235 177.896C230.426 178.679 229.329 179.12 228.185 179.121Z" fill="#8B99BA"/>
<path d="M112.136 225.592H50.0601C49.2909 225.592 48.5532 225.296 48.0094 224.77C47.4655 224.244 47.1599 223.531 47.1599 222.786C47.1599 222.042 47.4655 221.329 48.0094 220.803C48.5532 220.276 49.2909 219.981 50.0601 219.981H112.136C112.905 219.981 113.643 220.276 114.187 220.803C114.731 221.329 115.036 222.042 115.036 222.786C115.036 223.531 114.731 224.244 114.187 224.77C113.643 225.296 112.905 225.592 112.136 225.592Z" fill="#E6E6E6"/>
<path d="M92.234 213.53H69.9624C69.1932 213.53 68.4556 213.234 67.9117 212.708C67.3678 212.182 67.0623 211.468 67.0623 210.724C67.0623 209.98 67.3678 209.266 67.9117 208.74C68.4556 208.214 69.1932 207.918 69.9624 207.918H92.234C93.0031 207.918 93.7408 208.214 94.2847 208.74C94.8286 209.266 95.1341 209.98 95.1341 210.724C95.1341 211.468 94.8286 212.182 94.2847 212.708C93.7408 213.234 93.0031 213.53 92.234 213.53Z" fill="#E6E6E6"/>
<path d="M270.867 128.551H34.4368V129.479H270.867V128.551Z" fill="#3F3D56"/>
</svg>
