<svg width="1153" height="342" viewBox="0 0 1153 342" fill="none" xmlns="http://www.w3.org/2000/svg">
<path d="M577 116.055C577 152.714 513.142 260.826 476.529 319.8C474.046 323.802 470.416 327.135 466.016 329.456C461.615 331.776 456.604 333 451.5 333C446.396 333 441.385 331.776 436.984 329.456C432.584 327.135 428.954 323.802 426.471 319.8C389.857 260.826 326 152.714 326 116.055C326 64.6621 382.188 23 451.5 23C520.812 23 577 64.6621 577 116.055Z" fill="#8B99BA"/>
<path d="M653.462 244.382C637.046 237.565 620.095 231.56 602.71 226.401C620.141 231.475 637.098 237.482 653.462 244.382Z" fill="#3F3D56"/>
<path d="M554.697 325.07C556.696 330.824 563.543 334.387 563.543 334.387C563.543 334.387 567.148 328.622 565.15 322.869C563.151 317.115 556.304 313.552 556.304 313.552C556.304 313.552 552.698 319.317 554.697 325.07Z" fill="#3F3D56"/>
<path d="M557.634 323.834C563.119 327.991 563.789 334.382 563.789 334.382C563.789 334.382 555.566 334.032 550.082 329.875C544.597 325.718 543.927 319.327 543.927 319.327C543.927 319.327 552.149 319.676 557.634 323.834Z" fill="#8B99BA"/>
<path d="M316.934 281.824L312.053 275.489L357.617 245.079C391.303 232.454 431.908 236.097 474.784 245.079V253.948L432.474 289.427L383.654 297.029L316.934 281.824Z" fill="#3F3D56"/>
<path d="M494.953 262.924C503.044 255.916 504.168 249.253 494.953 243.1H479.613V249.351L474.784 245.079L435.729 275.489L429.219 280.557L421.082 305.899L435.729 333.774H510.584V276.756L494.953 262.924Z" fill="#CCCCCC"/>
<path d="M312.053 275.488H435.728V333.774H312.053C297.09 321.169 304.863 298.196 312.053 275.488Z" fill="#F2F2F2"/>
<path d="M418.642 293.861H392.605V311.6H418.642V293.861Z" fill="#3F3D56"/>
<path d="M382.027 293.227H359.245V333.774H382.027V293.227Z" fill="#CCCCCC"/>
<path d="M333.208 299.563V293.228H323.445V299.563H332.394H333.208Z" fill="#3F3D56"/>
<path d="M332.394 304.631H323.445V310.967H333.208V304.631H332.394Z" fill="#3F3D56"/>
<path d="M349.481 293.227H339.717V299.563H349.481V293.227Z" fill="#3F3D56"/>
<path d="M349.481 304.631H339.717V310.966H349.481V304.631Z" fill="#3F3D56"/>
<path d="M470.716 300.197V293.861H460.951V300.197H469.902H470.716Z" fill="#3F3D56"/>
<path d="M469.902 305.265H460.951V311.6H470.716V305.265H469.902Z" fill="#3F3D56"/>
<path d="M486.989 293.861H477.225V300.196H486.989V293.861Z" fill="#3F3D56"/>
<path d="M486.989 305.265H477.225V311.6H486.989V305.265Z" fill="#3F3D56"/>
<path d="M96.7201 175.39L88.584 170.321L134.149 138.644H249.687V166.52L174.832 205.8L96.7201 175.39Z" fill="#3F3D56"/>
<path d="M270.753 156.413V139.277H255.413V143.474L249.687 138.644L212.259 170.321L197.614 177.924L174.905 307.108L209.152 333.773H288.743C300.938 286.008 310.608 236.939 288.743 171.588L270.753 156.413Z" fill="#CCCCCC"/>
<path d="M88.5833 170.321H212.259V333.774H88.5833C75.0497 270.274 68.44 211.387 88.5833 170.321Z" fill="#F2F2F2"/>
<path d="M159.371 293.861H136.589V333.774H159.371V293.861Z" fill="#CCCCCC"/>
<path d="M112.179 305.265V298.93H102.416V305.265H111.366H112.179Z" fill="#3F3D56"/>
<path d="M111.366 310.333H102.416V316.669H112.179V310.333H111.366Z" fill="#3F3D56"/>
<path d="M128.452 298.929H118.689V305.265H128.452V298.929Z" fill="#3F3D56"/>
<path d="M178.086 310.333H169.136V316.669H178.899V310.333H178.086Z" fill="#3F3D56"/>
<path d="M195.172 298.929H185.408V305.265H195.172V298.929Z" fill="#3F3D56"/>
<path d="M195.172 310.333H185.408V316.668H195.172V310.333Z" fill="#3F3D56"/>
<path d="M247.246 178.557V172.222H237.483V178.557H246.433H247.246Z" fill="#3F3D56"/>
<path d="M246.433 183.626H237.483V189.961H247.246V183.626H246.433Z" fill="#3F3D56"/>
<path d="M263.519 172.222H253.756V178.557H263.519V172.222Z" fill="#3F3D56"/>
<path d="M263.519 183.626H253.756V189.961H263.519V183.626Z" fill="#3F3D56"/>
<path d="M247.246 214.036V207.7H237.483V214.036H246.433H247.246Z" fill="#3F3D56"/>
<path d="M246.433 219.104H237.483V225.439H247.246V219.104H246.433Z" fill="#3F3D56"/>
<path d="M263.519 207.7H253.756V214.035H263.519V207.7Z" fill="#3F3D56"/>
<path d="M263.519 219.104H253.756V225.439H263.519V219.104Z" fill="#3F3D56"/>
<path d="M247.246 249.514V243.178H237.483V249.514H246.433H247.246Z" fill="#3F3D56"/>
<path d="M246.433 254.582H237.483V260.917H247.246V254.582H246.433Z" fill="#3F3D56"/>
<path d="M263.519 243.178H253.756V249.513H263.519V243.178Z" fill="#3F3D56"/>
<path d="M263.519 254.582H253.756V260.917H263.519V254.582Z" fill="#3F3D56"/>
<path d="M247.246 284.992V278.656H237.483V284.992H246.433H247.246Z" fill="#3F3D56"/>
<path d="M246.433 290.06H237.483V296.395H247.246V290.06H246.433Z" fill="#3F3D56"/>
<path d="M263.519 278.656H253.756V284.991H263.519V278.656Z" fill="#3F3D56"/>
<path d="M263.519 290.06H253.756V296.395H263.519V290.06Z" fill="#3F3D56"/>
<path d="M102.415 178.557H196.8V193.762C166.547 187.261 134.998 187.728 102.415 193.762V178.557Z" fill="#3F3D56"/>
<path d="M102.415 208.967C131.874 215.725 163.335 215.725 196.8 208.967V224.172H102.415V208.967Z" fill="#3F3D56"/>
<path d="M102.415 239.377H196.8V254.582C164.634 246.584 133.139 246.207 102.415 254.582V239.377Z" fill="#3F3D56"/>
<path d="M102.415 269.786C133.197 279.024 164.687 278.639 196.8 269.786V284.991H102.415V269.786Z" fill="#3F3D56"/>
<path d="M609.684 243.371H676V268.252L670.076 269.695L650.37 274.483L619.454 268.907L588.573 263.335L572.266 260.394L564.124 258.048C570.897 250.812 583.216 245.121 609.684 243.371Z" fill="#3F3D56"/>
<path d="M676 258.048V333.775H564.124C564.088 333.728 564.065 333.686 564.029 333.639V333.635C564.003 333.582 563.971 333.531 563.935 333.481C562.189 330.744 560.623 328.014 559.239 325.292C547.498 302.25 548.772 279.817 564.124 258.048H676Z" fill="#F2F2F2"/>
<path d="M634.912 293.861H612.13V333.774H634.912V293.861Z" fill="#CCCCCC"/>
<path d="M587.72 305.265V298.93H577.957V305.265H586.907H587.72Z" fill="#3F3D56"/>
<path d="M586.907 310.333H577.957V316.669H587.72V310.333H586.907Z" fill="#3F3D56"/>
<path d="M603.994 298.929H594.23V305.265H603.994V298.929Z" fill="#3F3D56"/>
<path d="M603.994 310.333H594.23V316.668H603.994V310.333Z" fill="#3F3D56"/>
<path d="M654.44 305.265V298.93H644.677V305.265H653.627H654.44Z" fill="#3F3D56"/>
<path d="M653.627 310.333H644.677V316.669H654.44V310.333H653.627Z" fill="#3F3D56"/>
<path d="M670.713 298.929H660.949V305.265H670.713V298.929Z" fill="#3F3D56"/>
<path d="M670.713 310.333H660.949V316.668H670.713V310.333Z" fill="#3F3D56"/>
<path d="M654.76 269.787H588.576V284.991H654.76V269.787Z" fill="#3F3D56"/>
<path d="M65.4321 260.557H63.0721V333.141H65.4321V260.557Z" fill="#3F3D56"/>
<path d="M87.2123 269.807C87.3626 295.188 64.429 315.846 64.429 315.846C64.429 315.846 35.0596 294.914 41.1016 269.973C47.1781 244.889 66.1165 224.04 63.8849 223.934C63.8849 223.934 87.0621 244.426 87.2123 269.807Z" fill="#8B99BA"/>
<path d="M301.433 260.557H299.073V333.141H301.433V260.557Z" fill="#3F3D56"/>
<path d="M323.213 269.807C325.34 295.134 300.429 315.846 300.429 315.846C300.429 315.846 277.252 295.353 277.102 269.973C276.952 244.592 299.885 223.934 299.885 223.934C297.649 230.891 321.492 249.315 323.213 269.807Z" fill="#8B99BA"/>
<path d="M148.106 142.57L250.617 138.666L293.62 166.614L286.017 171.959L217.92 170.765L148.106 142.57Z" fill="#3F3D56"/>
<path d="M372.306 248.231L474.818 244.326L517.82 272.274L510.218 277.619L442.121 276.425L372.306 248.231Z" fill="#3F3D56"/>
<path d="M452.5 179C490.332 179 521 151.466 521 117.5C521 83.5345 490.332 56 452.5 56C414.669 56 384 83.5345 384 117.5C384 151.466 414.669 179 452.5 179Z" fill="white"/>
<path d="M648.961 242.156V251.299L648.398 251.791V242.062C648.586 242.09 648.774 242.128 648.961 242.156Z" fill="#3F3D56"/>
<path d="M961.934 280.011L957.053 273.485L1002.62 242.159C1036.3 229.154 1076.91 232.907 1119.78 242.159V251.296L1077.47 287.843L1028.65 295.674L961.934 280.011Z" fill="#3F3D56"/>
<path d="M1139.95 260.542C1148.04 253.324 1149.17 246.459 1139.95 240.121H1124.61V246.561L1119.78 242.159L1080.73 273.485L1074.22 278.706L1066.08 304.811L1080.73 333.526H1155.58V274.79L1139.95 260.542Z" fill="#CCCCCC"/>
<path d="M957.053 273.485H1080.73V333.526H957.053C942.09 320.542 949.863 296.876 957.053 273.485Z" fill="#F2F2F2"/>
<path d="M1063.64 292.411H1037.6V310.684H1063.64V292.411Z" fill="#3F3D56"/>
<path d="M1027.03 291.758H1004.24V333.526H1027.03V291.758Z" fill="#CCCCCC"/>
<path d="M978.208 298.285V291.759H968.445V298.285H977.394H978.208Z" fill="#3F3D56"/>
<path d="M977.394 303.505H968.445V310.032H978.208V303.505H977.394Z" fill="#3F3D56"/>
<path d="M994.481 291.758H984.717V298.285H994.481V291.758Z" fill="#3F3D56"/>
<path d="M994.481 303.505H984.717V310.032H994.481V303.505Z" fill="#3F3D56"/>
<path d="M1115.72 298.938V292.411H1105.95V298.938H1114.9H1115.72Z" fill="#3F3D56"/>
<path d="M1114.9 304.158H1105.95V310.684H1115.72V304.158H1114.9Z" fill="#3F3D56"/>
<path d="M1131.99 292.411H1122.22V298.937H1131.99V292.411Z" fill="#3F3D56"/>
<path d="M1131.99 304.158H1122.22V310.684H1131.99V304.158Z" fill="#3F3D56"/>
<path d="M741.72 170.372L733.584 165.15L779.149 132.519H894.687V161.235L819.832 201.698L741.72 170.372Z" fill="#3F3D56"/>
<path d="M915.753 150.823V133.171H900.413V137.494L894.687 132.519L857.259 165.15L842.614 172.982L819.905 306.057L854.152 333.526H933.743C945.938 284.321 955.608 233.774 933.743 166.455L915.753 150.823Z" fill="#CCCCCC"/>
<path d="M733.583 165.15H857.259V333.526H733.583C720.05 268.113 713.44 207.453 733.583 165.15Z" fill="#F2F2F2"/>
<path d="M804.371 292.411H781.589V333.526H804.371V292.411Z" fill="#CCCCCC"/>
<path d="M757.179 304.158V297.633H747.416V304.158H756.366H757.179Z" fill="#3F3D56"/>
<path d="M756.366 309.379H747.416V315.906H757.179V309.379H756.366Z" fill="#3F3D56"/>
<path d="M773.452 297.632H763.689V304.158H773.452V297.632Z" fill="#3F3D56"/>
<path d="M823.086 309.379H814.136V315.906H823.899V309.379H823.086Z" fill="#3F3D56"/>
<path d="M840.172 297.632H830.408V304.158H840.172V297.632Z" fill="#3F3D56"/>
<path d="M840.172 309.379H830.408V315.905H840.172V309.379Z" fill="#3F3D56"/>
<path d="M892.246 173.634V167.109H882.483V173.634H891.433H892.246Z" fill="#3F3D56"/>
<path d="M891.433 178.856H882.483V185.382H892.246V178.856H891.433Z" fill="#3F3D56"/>
<path d="M908.519 167.108H898.756V173.634H908.519V167.108Z" fill="#3F3D56"/>
<path d="M908.519 178.855H898.756V185.382H908.519V178.855Z" fill="#3F3D56"/>
<path d="M892.246 210.182V203.655H882.483V210.182H891.433H892.246Z" fill="#3F3D56"/>
<path d="M891.433 215.402H882.483V221.928H892.246V215.402H891.433Z" fill="#3F3D56"/>
<path d="M908.519 203.655H898.756V210.181H908.519V203.655Z" fill="#3F3D56"/>
<path d="M908.519 215.402H898.756V221.928H908.519V215.402Z" fill="#3F3D56"/>
<path d="M892.246 246.728V240.201H882.483V246.728H891.433H892.246Z" fill="#3F3D56"/>
<path d="M891.433 251.949H882.483V258.475H892.246V251.949H891.433Z" fill="#3F3D56"/>
<path d="M908.519 240.201H898.756V246.728H908.519V240.201Z" fill="#3F3D56"/>
<path d="M908.519 251.949H898.756V258.475H908.519V251.949Z" fill="#3F3D56"/>
<path d="M892.246 283.275V276.748H882.483V283.275H891.433H892.246Z" fill="#3F3D56"/>
<path d="M891.433 288.495H882.483V295.021H892.246V288.495H891.433Z" fill="#3F3D56"/>
<path d="M908.519 276.748H898.756V283.274H908.519V276.748Z" fill="#3F3D56"/>
<path d="M908.519 288.495H898.756V295.021H908.519V288.495Z" fill="#3F3D56"/>
<path d="M747.415 173.634H841.8V189.297C811.547 182.6 779.998 183.081 747.415 189.297V173.634Z" fill="#3F3D56"/>
<path d="M747.415 204.96C776.874 211.921 808.335 211.921 841.8 204.96V220.623H747.415V204.96Z" fill="#3F3D56"/>
<path d="M747.415 236.286H841.8V251.949C809.634 243.71 778.139 243.322 747.415 251.949V236.286Z" fill="#3F3D56"/>
<path d="M747.415 267.611C778.197 277.127 809.687 276.731 841.8 267.611V283.274H747.415V267.611Z" fill="#3F3D56"/>
<path d="M685.15 259.726H682.79V334.497H685.15V259.726Z" fill="#3F3D56"/>
<path d="M706.93 269.255C707.08 295.4 684.146 316.68 684.146 316.68C684.146 316.68 654.777 295.118 660.819 269.425C666.896 243.586 685.834 222.11 683.602 222C683.602 222 706.779 243.11 706.93 269.255Z" fill="#8B99BA"/>
<path d="M946.433 258.104H944.073V332.874H946.433V258.104Z" fill="#3F3D56"/>
<path d="M968.213 267.633C970.34 293.723 945.429 315.058 945.429 315.058C945.429 315.058 922.252 293.948 922.102 267.803C921.952 241.658 944.885 220.378 944.885 220.378C942.649 227.545 966.492 246.523 968.213 267.633Z" fill="#8B99BA"/>
<path d="M793.106 136.563L895.617 132.541L938.62 161.331L931.017 166.837L862.92 165.607L793.106 136.563Z" fill="#3F3D56"/>
<path d="M1017.31 245.406L1119.82 241.384L1162.82 270.174L1155.22 275.68L1087.12 274.45L1017.31 245.406Z" fill="#3F3D56"/>
</svg>
