<svg width="267" height="284" viewBox="0 0 267 284" fill="none" xmlns="http://www.w3.org/2000/svg">
<g clip-path="url(#clip0_33_1044)">
<path d="M234.298 143.596C238.954 144.153 243.586 144.854 248.194 145.698V146.456C243.616 145.624 238.984 144.933 234.298 144.383C225.409 143.336 216.453 142.806 207.487 142.797H207.185C178.377 142.817 149.911 148.375 123.721 159.093C118.294 161.305 112.989 163.724 107.806 166.349C90.626 175.052 74.931 185.908 61.1998 198.588C51.9172 207.158 43.5981 216.521 36.3621 226.541C35.4445 227.807 34.5469 229.086 33.6691 230.376C30.1372 235.55 26.9002 240.879 23.9707 246.344C17.7044 258.038 12.8937 270.311 9.62499 282.943C9.547 283.213 9.47819 283.488 9.40937 283.762C9.39102 283.84 9.36808 283.922 9.34973 284L8.45514 283.82C8.45973 283.799 8.46431 283.783 8.4689 283.762C8.53772 283.488 8.60653 283.217 8.67993 282.943C12.021 270.003 16.9569 257.433 23.3972 245.463V245.459C26.4873 239.699 29.916 234.088 33.6691 228.651C34.5499 227.373 35.4476 226.104 36.3621 224.845C43.5961 214.908 51.8912 205.621 61.131 197.113C66.7815 191.91 72.7761 187.015 79.0826 182.452L79.0872 182.448C88.0923 175.939 97.6998 170.125 107.806 165.067C112.086 162.92 116.428 160.928 120.831 159.093C147.988 147.731 177.627 141.885 207.616 141.974C216.54 141.995 225.453 142.537 234.298 143.596Z" fill="#3F3D56"/>
<path d="M137.683 50.6932C151.445 50.6932 162.601 40.7291 162.601 28.4378C162.601 16.1464 151.445 6.18231 137.683 6.18231C123.921 6.18231 112.765 16.1464 112.765 28.4378C112.765 40.7291 123.921 50.6932 137.683 50.6932Z" fill="#FF6584"/>
<path d="M30.3297 278.945C31.1068 281.51 33.7686 283.099 33.7686 283.099C33.7686 283.099 35.1705 280.529 34.3934 277.963C33.6162 275.397 30.9544 273.808 30.9544 273.808C30.9544 273.808 29.5525 276.379 30.3297 278.945Z" fill="#3F3D56"/>
<path d="M31.4716 278.393C33.604 280.247 33.8645 283.097 33.8645 283.097C33.8645 283.097 30.6676 282.941 28.5351 281.087C26.4027 279.233 26.1422 276.383 26.1422 276.383C26.1422 276.383 29.3391 276.539 31.4716 278.393Z" fill="#8B99BA"/>
<path d="M89.5108 278.945C90.288 281.51 92.9498 283.099 92.9498 283.099C92.9498 283.099 94.3517 280.529 93.5745 277.963C92.7974 275.397 90.1356 273.808 90.1356 273.808C90.1356 273.808 88.7337 276.379 89.5108 278.945Z" fill="#3F3D56"/>
<path d="M90.6528 278.393C92.7852 280.247 93.0457 283.097 93.0457 283.097C93.0457 283.097 89.8488 282.941 87.7163 281.087C85.5838 279.233 85.3234 276.383 85.3234 276.383C85.3234 276.383 88.5203 276.539 90.6528 278.393Z" fill="#8B99BA"/>
<path d="M248.194 53.9333V80.4295L234.298 88.7966L213.883 101.081L191.197 114.738L155.596 98.8395L110.614 78.7537L101.246 74.5702L91.8777 67.8749L120.803 44.8061L129.111 38.1814C138.923 30.3565 151.618 26.0316 164.773 26.0316H216.954C221.057 26.0316 225.119 26.7533 228.909 28.1555C232.699 29.5576 236.143 31.6129 239.044 34.2038C241.945 36.7947 244.246 39.8706 245.816 43.2558C247.386 46.641 248.194 50.2692 248.194 53.9333Z" fill="#3F3D56"/>
<path d="M234.422 67.7561L248.194 54.386C272.275 133.723 274.243 210.423 248.194 283.783H230.72L229.779 282.943L205.418 261.189L191.279 248.561L191.651 246.127L192.935 237.756L195.757 219.346L198.835 199.26L201.913 179.179L204.992 159.093L207.487 142.797L207.616 141.974L208.07 139.007L211.148 118.921L213.883 101.081L214.227 98.8395L216.493 84.0558L217.434 77.9178L234.298 67.8749L234.422 67.7561Z" fill="#CCCCCC"/>
<path d="M91.8761 67.8739H234.298V283.784H91.8761C76.3251 204.783 72.4161 131.046 91.8761 67.8739Z" fill="#F2F2F2"/>
<path d="M173.394 231.062H147.158V283.784H173.394V231.062Z" fill="#CCCCCC"/>
<path d="M216.495 199.261H107.805V219.346H216.495V199.261Z" fill="#3F3D56"/>
<path d="M224.797 247.25H178.455V255.814H224.797V247.25Z" fill="#3F3D56"/>
<path d="M142.218 247.25H95.8768V255.814H142.218V247.25Z" fill="#3F3D56"/>
<path d="M216.495 159.092H107.805V179.177H216.495V159.092Z" fill="#3F3D56"/>
<path d="M216.495 118.923H107.805V139.007H216.495V118.923Z" fill="#3F3D56"/>
<path d="M216.495 78.7531H107.805V98.8378H216.495V78.7531Z" fill="#3F3D56"/>
<path d="M248.194 282.943H0V283.762H248.194V282.943Z" fill="#3F3D56"/>
<path d="M36.362 188.326H33.6669V283.409H36.362V188.326Z" fill="#3F3D56"/>
<path d="M61.2353 200.443C61.4069 233.691 35.2164 260.753 35.2164 260.753C35.2164 260.753 8.74771 233.908 8.57616 200.66C8.4046 167.412 34.5951 140.35 34.5951 140.35C37.3822 131.541 67.2032 147.79 61.2353 200.443Z" fill="#8B99BA"/>
<path opacity="0.1" d="M61.2353 200.443C61.4069 233.691 35.2164 260.753 35.2164 260.753C35.2164 260.753 8.74771 233.908 8.57616 200.66C8.4046 167.412 34.5951 140.35 34.5951 140.35C37.3822 131.541 67.2032 147.79 61.2353 200.443Z" fill="black"/>
<path d="M103.468 16.9309C82.238 17.0183 64.9574 17.2984 64.9574 17.2984C64.9574 17.2984 85.4982 -7.00256 103.391 2.00078C121.285 11.0041 141.839 16.9819 141.839 16.9819C141.839 16.9819 124.699 16.8435 103.468 16.9309Z" fill="#F2F2F2"/>
<path d="M162.345 25.2449L219.318 22.7567C227.176 22.4136 234.889 24.731 240.917 29.2459C246.945 33.7608 250.844 40.1409 251.835 47.1114L258.746 95.7336L234.472 67.7807L234.422 67.7561L161.785 34.1077L160.343 33.4401C155.934 31.398 157.384 25.4617 162.345 25.2449Z" fill="#3F3D56"/>
<path d="M191.307 41.967H144.965V50.5304H191.307V41.967Z" fill="#F2F2F2"/>
<path d="M173.415 225.623H151.853C136.835 173.262 136.835 121.907 151.853 71.5585H173.415C187.141 123.798 187.633 175.185 173.415 225.623Z" fill="#F2F2F2"/>
</g>
<defs>
<clipPath id="clip0_33_1044">
<rect width="267" height="284" fill="white"/>
</clipPath>
</defs>
</svg>
