<svg width="674" height="312" viewBox="0 0 674 312" fill="none" xmlns="http://www.w3.org/2000/svg">
<g clip-path="url(#clip0_106_2949)">
<path d="M347.5 40C358.27 40 367 31.7173 367 21.5C367 11.2827 358.27 3 347.5 3C336.73 3 328 11.2827 328 21.5C328 31.7173 336.73 40 347.5 40Z" fill="#FF6584"/>
<path d="M259.991 306.446C260.631 309.265 262.824 311.011 262.824 311.011C262.824 311.011 263.979 308.186 263.339 305.368C262.699 302.549 260.505 300.803 260.505 300.803C260.505 300.803 259.35 303.627 259.991 306.446Z" fill="#3F3D56"/>
<path d="M260.932 305.84C262.689 307.877 262.904 311.008 262.904 311.008C262.904 311.008 260.269 310.837 258.512 308.8C256.755 306.763 256.541 303.632 256.541 303.632C256.541 303.632 259.175 303.804 260.932 305.84Z" fill="#8B99BA"/>
<path d="M308.754 306.446C309.395 309.265 311.588 311.011 311.588 311.011C311.588 311.011 312.743 308.186 312.103 305.368C311.462 302.549 309.269 300.803 309.269 300.803C309.269 300.803 308.114 303.627 308.754 306.446Z" fill="#3F3D56"/>
<path d="M309.695 305.84C311.452 307.877 311.667 311.008 311.667 311.008C311.667 311.008 309.033 310.837 307.275 308.8C305.518 306.763 305.304 303.632 305.304 303.632C305.304 303.632 307.938 303.804 309.695 305.84Z" fill="#8B99BA"/>
<path d="M439.505 59.2507V88.3593L428.055 97.5512L411.233 111.047L392.54 126.05L363.207 108.584L326.143 86.5182L318.424 81.9222L310.705 74.5668L334.538 49.2237L341.384 41.9458C349.469 33.3494 359.929 28.5981 370.768 28.5981H413.764C417.144 28.5981 420.491 29.3909 423.614 30.9314C426.737 32.4718 429.575 34.7297 431.965 37.576C434.356 40.4224 436.252 43.8015 437.545 47.5205C438.839 51.2394 439.505 55.2254 439.505 59.2507Z" fill="#3F3D56"/>
<path d="M428.157 74.4363L439.505 59.748C459.346 146.907 460.968 231.169 439.505 311.761H425.106L424.331 310.839L404.259 286.94L392.608 273.067L392.915 270.393L393.973 261.197L396.298 240.972L398.834 218.906L401.371 196.844L403.907 174.778L405.964 156.876L406.069 155.971L406.444 152.712L408.98 130.646L411.233 111.047L411.517 108.584L413.384 92.343L414.159 85.5998L428.055 74.5668L428.157 74.4363Z" fill="#CCCCCC"/>
<path d="M310.703 74.5657H428.054V311.763H310.703C297.89 224.973 294.669 143.966 310.703 74.5657Z" fill="#F2F2F2"/>
<path d="M377.871 253.843H356.254V311.763H377.871V253.843Z" fill="#CCCCCC"/>
<path d="M413.386 218.907H323.828V240.972H413.386V218.907Z" fill="#3F3D56"/>
<path d="M420.226 271.627H382.042V281.035H420.226V271.627Z" fill="#3F3D56"/>
<path d="M352.184 271.627H314V281.035H352.184V271.627Z" fill="#3F3D56"/>
<path d="M413.386 174.777H323.828V196.842H413.386V174.777Z" fill="#3F3D56"/>
<path d="M413.386 130.647H323.828V152.712H413.386V130.647Z" fill="#3F3D56"/>
<path d="M413.386 86.5175H323.828V108.582H413.386V86.5175Z" fill="#3F3D56"/>
<path d="M264.961 207.893H262.741V312.351H264.961V207.893Z" fill="#3F3D56"/>
<path d="M285.456 220.205C285.598 256.731 264.017 286.461 264.017 286.461C264.017 286.461 242.208 256.969 242.067 220.443C241.925 183.917 263.505 154.187 263.505 154.187C265.802 144.51 290.374 162.361 285.456 220.205Z" fill="#8B99BA"/>
<path opacity="0.1" d="M285.456 220.205C285.598 256.731 264.017 286.461 264.017 286.461C264.017 286.461 242.208 256.969 242.067 220.443C241.925 183.917 263.505 154.187 263.505 154.187C265.802 144.51 290.374 162.361 285.456 220.205Z" fill="black"/>
<path d="M288.364 125.789C288.364 125.789 274.241 125.64 256.747 125.735C248.34 125.78 240.685 125.874 235 125.964V114.319C241.116 108.742 249.183 104.299 256.687 109.331C271.429 119.226 288.364 125.789 288.364 125.789Z" fill="#F2F2F2"/>
<path d="M320.255 18.6001C302.762 18.6961 288.523 19.0039 288.523 19.0039C288.523 19.0039 305.448 -7.69295 320.191 2.19804C334.935 12.089 351.871 18.6562 351.871 18.6562C351.871 18.6562 337.748 18.5041 320.255 18.6001Z" fill="#F2F2F2"/>
<path d="M368.767 27.7338L415.711 25.0004C422.186 24.6234 428.542 27.1692 433.508 32.1293C438.475 37.0893 441.688 44.0984 442.504 51.7562L448.199 105.172L428.198 74.4633L428.156 74.4363L368.306 37.4704L367.118 36.7369C363.485 34.4936 364.68 27.972 368.767 27.7338Z" fill="#3F3D56"/>
<path d="M392.631 46.1046H354.447V55.5122H392.631V46.1046Z" fill="#F2F2F2"/>
<path d="M377.889 247.868H360.122C347.748 190.344 347.748 133.926 360.122 78.6136H377.889C389.199 136.004 389.604 192.457 377.889 247.868Z" fill="#F2F2F2"/>
</g>
<g clip-path="url(#clip1_106_2949)">
<path d="M24.9907 307.212C25.6311 309.642 27.8243 311.147 27.8243 311.147C27.8243 311.147 28.9794 308.712 28.3391 306.282C27.6988 303.851 25.5055 302.346 25.5055 302.346C25.5055 302.346 24.3504 304.781 24.9907 307.212Z" fill="#3F3D56"/>
<path d="M25.9318 306.689C27.6889 308.445 27.9035 311.145 27.9035 311.145C27.9035 311.145 25.2693 310.997 23.5122 309.241C21.7552 307.485 21.5405 304.786 21.5405 304.786C21.5405 304.786 24.1747 304.933 25.9318 306.689Z" fill="#8B99BA"/>
<path d="M73.7544 307.212C74.3947 309.642 76.588 311.147 76.588 311.147C76.588 311.147 77.7431 308.712 77.1028 306.282C76.4624 303.851 74.2692 302.346 74.2692 302.346C74.2692 302.346 73.1141 304.781 73.7544 307.212Z" fill="#3F3D56"/>
<path d="M74.695 306.689C76.4521 308.445 76.6667 311.145 76.6667 311.145C76.6667 311.145 74.0325 310.997 72.2754 309.241C70.5183 307.485 70.3037 304.786 70.3037 304.786C70.3037 304.786 72.9379 304.933 74.695 306.689Z" fill="#8B99BA"/>
<path d="M204.505 94.0848V119.182L193.055 127.107L176.233 138.742L157.54 151.678L128.207 136.619L91.1426 117.594L83.4236 113.632L75.7046 107.29L99.5382 85.4396L106.384 79.1648C114.469 71.7532 124.929 67.6567 135.768 67.6567H178.764C182.144 67.6567 185.491 68.3403 188.614 69.6684C191.737 70.9965 194.575 72.9432 196.965 75.3973C199.356 77.8514 201.252 80.7648 202.545 83.9712C203.839 87.1776 204.505 90.6142 204.505 94.0848Z" fill="#3F3D56"/>
<path d="M193.157 107.177L204.505 94.5135C224.346 169.66 225.968 242.309 204.505 311.794H190.106L189.331 310.999L169.259 290.394L157.608 278.433L157.915 276.127L158.973 268.198L161.298 250.761L163.834 231.736L166.371 212.715L168.907 193.69L170.964 178.255L171.069 177.475L171.444 174.665L173.98 155.64L176.233 138.742L176.517 136.619L178.384 122.616L179.159 116.802L193.055 107.29L193.157 107.177Z" fill="#CCCCCC"/>
<path d="M75.703 107.289H193.054V311.796H75.703C62.8896 236.967 59.6686 167.124 75.703 107.289Z" fill="#F2F2F2"/>
<path d="M142.871 261.858H121.254V311.796H142.871V261.858Z" fill="#CCCCCC"/>
<path d="M178.386 231.737H88.8281V250.761H178.386V231.737Z" fill="#3F3D56"/>
<path d="M185.226 277.191H147.042V285.302H185.226V277.191Z" fill="#3F3D56"/>
<path d="M117.184 277.191H78.9995V285.302H117.184V277.191Z" fill="#3F3D56"/>
<path d="M178.386 193.689H88.8281V212.713H178.386V193.689Z" fill="#3F3D56"/>
<path d="M178.386 155.641H88.8281V174.665H178.386V155.641Z" fill="#3F3D56"/>
<path d="M178.386 117.594H88.8281V136.618H178.386V117.594Z" fill="#3F3D56"/>
<path d="M29.9615 222.379H27.7407V312.44H29.9615V222.379Z" fill="#3F3D56"/>
<path d="M50.4562 232.856C50.5976 264.348 29.0174 289.98 29.0174 289.98C29.0174 289.98 7.20796 264.554 7.06661 233.062C6.92526 201.569 28.5054 175.937 28.5054 175.937C30.8019 167.593 55.3735 182.984 50.4562 232.856Z" fill="#8B99BA"/>
<path opacity="0.1" d="M50.4562 232.856C50.5976 264.348 29.0174 289.98 29.0174 289.98C29.0174 289.98 7.20796 264.554 7.06661 233.062C6.92526 201.569 28.5054 175.937 28.5054 175.937C30.8019 167.593 55.3735 182.984 50.4562 232.856Z" fill="black"/>
<path d="M53.3639 151.452C53.3639 151.452 39.2414 151.324 21.747 151.406C13.34 151.445 5.6853 151.526 0 151.604V141.564C6.11623 136.755 14.183 132.924 21.6865 137.263C36.429 145.794 53.3639 151.452 53.3639 151.452Z" fill="#F2F2F2"/>
<path d="M85.2548 59.0366C67.7617 59.1194 53.5229 59.3848 53.5229 59.3848C53.5229 59.3848 70.4479 36.3673 85.1914 44.8951C99.9348 53.4229 116.871 59.085 116.871 59.085C116.871 59.085 102.748 58.9539 85.2548 59.0366Z" fill="#F2F2F2"/>
<path d="M133.767 66.9115L180.711 64.5548C187.186 64.2298 193.542 66.4248 198.508 70.7012C203.475 74.9777 206.688 81.0208 207.504 87.6231L213.199 133.677L193.198 107.201L193.156 107.177L133.306 75.3062L132.118 74.6739C128.485 72.7397 129.68 67.1169 133.767 66.9115Z" fill="#3F3D56"/>
<path d="M157.631 82.7504H119.447V90.8615H157.631V82.7504Z" fill="#F2F2F2"/>
<path d="M142.889 256.707H125.122C112.748 207.111 112.748 158.468 125.122 110.779H142.889C154.199 160.26 154.604 208.932 142.889 256.707Z" fill="#F2F2F2"/>
</g>
<g clip-path="url(#clip2_106_2949)">
<path d="M647.055 205.214C650.891 205.638 654.708 206.171 658.504 206.813V207.389C654.732 206.757 650.915 206.231 647.055 205.812C639.73 205.016 632.351 204.613 624.963 204.606H624.714C600.977 204.621 577.522 208.848 555.942 217C551.47 218.683 547.099 220.523 542.829 222.519C528.673 229.138 515.741 237.395 504.427 247.039C496.778 253.557 489.924 260.678 483.961 268.299C483.205 269.262 482.466 270.234 481.742 271.216C478.832 275.15 476.165 279.204 473.751 283.36C468.588 292.255 464.624 301.589 461.931 311.196C461.866 311.402 461.81 311.61 461.753 311.819C461.738 311.878 461.719 311.941 461.704 312L460.967 311.863C460.971 311.847 460.974 311.835 460.978 311.819C461.035 311.61 461.092 311.405 461.152 311.196C463.905 301.354 467.972 291.794 473.279 282.69V282.687C475.825 278.306 478.65 274.039 481.742 269.904C482.468 268.932 483.208 267.966 483.961 267.009C489.922 259.451 496.757 252.388 504.37 245.917C509.026 241.96 513.965 238.236 519.162 234.767L519.166 234.764C526.585 229.813 534.502 225.39 542.829 221.544C546.356 219.911 549.933 218.396 553.561 217C575.938 208.359 600.359 203.912 625.069 203.98C632.422 203.996 639.766 204.409 647.055 205.214Z" fill="#3F3D56"/>
<path d="M478.991 308.155C479.631 310.106 481.824 311.315 481.824 311.315C481.824 311.315 482.979 309.36 482.339 307.408C481.699 305.457 479.505 304.248 479.505 304.248C479.505 304.248 478.35 306.204 478.991 308.155Z" fill="#3F3D56"/>
<path d="M479.932 307.736C481.689 309.146 481.904 311.313 481.904 311.313C481.904 311.313 479.269 311.195 477.512 309.785C475.755 308.375 475.541 306.207 475.541 306.207C475.541 306.207 478.175 306.326 479.932 307.736Z" fill="#8B99BA"/>
<path d="M527.754 308.155C528.395 310.106 530.588 311.315 530.588 311.315C530.588 311.315 531.743 309.36 531.103 307.408C530.462 305.457 528.269 304.248 528.269 304.248C528.269 304.248 527.114 306.204 527.754 308.155Z" fill="#3F3D56"/>
<path d="M528.695 307.736C530.452 309.146 530.667 311.313 530.667 311.313C530.667 311.313 528.033 311.195 526.275 309.785C524.518 308.375 524.304 306.207 524.304 306.207C524.304 306.207 526.938 306.326 528.695 307.736Z" fill="#8B99BA"/>
<path d="M658.505 137.02V157.172L647.055 163.535L630.233 172.878L611.54 183.265L582.207 171.174L545.143 155.897L537.424 152.715L529.705 147.623L553.538 130.078L560.384 125.039C568.469 119.088 578.929 115.799 589.768 115.799H632.764C636.144 115.799 639.491 116.348 642.614 117.414C645.737 118.48 648.575 120.044 650.965 122.014C653.356 123.985 655.252 126.324 656.545 128.899C657.839 131.473 658.505 134.233 658.505 137.02Z" fill="#3F3D56"/>
<path d="M647.157 147.533L658.505 137.364C678.346 197.705 679.968 256.04 658.505 311.835H644.106L643.331 311.196L623.259 294.651L611.608 285.046L611.915 283.195L612.973 276.828L615.298 262.827L617.834 247.55L620.371 232.277L622.907 217L624.964 204.606L625.069 203.98L625.444 201.724L627.98 186.447L630.233 172.878L630.517 171.174L632.384 159.93L633.159 155.261L647.055 147.623L647.157 147.533Z" fill="#CCCCCC"/>
<path d="M529.703 147.622H647.054V311.836H529.703C516.89 251.751 513.669 195.668 529.703 147.622Z" fill="#F2F2F2"/>
<path d="M596.871 271.737H575.254V311.836H596.871V271.737Z" fill="#CCCCCC"/>
<path d="M632.386 247.551H542.828V262.827H632.386V247.551Z" fill="#3F3D56"/>
<path d="M639.226 284.049H601.042V290.562H639.226V284.049Z" fill="#3F3D56"/>
<path d="M571.184 284.049H533V290.562H571.184V284.049Z" fill="#3F3D56"/>
<path d="M632.386 217H542.828V232.275H632.386V217Z" fill="#3F3D56"/>
<path d="M632.386 186.448H542.828V201.724H632.386V186.448Z" fill="#3F3D56"/>
<path d="M632.386 155.897H542.828V171.172H632.386V155.897Z" fill="#3F3D56"/>
<path d="M483.961 240.234H481.741V312.55H483.961V240.234Z" fill="#3F3D56"/>
<path d="M504.456 248.45C504.598 273.737 483.017 294.319 483.017 294.319C483.017 294.319 461.208 273.902 461.067 248.614C460.925 223.327 482.505 202.745 482.505 202.745C484.802 196.045 509.374 208.404 504.456 248.45Z" fill="#8B99BA"/>
<path opacity="0.1" d="M504.456 248.45C504.598 273.737 483.017 294.319 483.017 294.319C483.017 294.319 461.208 273.902 461.067 248.614C460.925 223.327 482.505 202.745 482.505 202.745C484.802 196.045 509.374 208.404 504.456 248.45Z" fill="black"/>
<path d="M455.092 239.232H454V311.551H455.092V239.232Z" fill="#3F3D56"/>
<path d="M475.588 248.451C501.612 254.008 473.644 267.199 468.444 274.878V274.881C464.938 281.474 460.453 287.684 455.092 293.367C454.491 293.99 454.147 294.318 454.147 294.318L454 294.177V203.098C459.727 208.921 464.504 215.337 468.209 222.183V222.186C472.232 229.609 464.098 245.997 475.588 248.451Z" fill="#8B99BA"/>
<path d="M507.364 183.085C507.364 183.085 493.241 182.982 475.747 183.047C467.34 183.078 459.685 183.144 454 183.206V175.144C460.116 171.283 468.183 168.207 475.687 171.691C490.429 178.541 507.364 183.085 507.364 183.085Z" fill="#F2F2F2"/>
<path d="M539.255 108.877C521.762 108.943 507.523 109.157 507.523 109.157C507.523 109.157 524.448 90.6741 539.191 97.5217C553.935 104.369 570.871 108.916 570.871 108.916C570.871 108.916 556.748 108.811 539.255 108.877Z" fill="#F2F2F2"/>
<path d="M587.767 115.2L634.711 113.308C641.186 113.047 647.542 114.809 652.508 118.243C657.475 121.677 660.688 126.53 661.504 131.831L667.199 168.811L647.198 147.551L647.156 147.533L587.306 121.941L586.118 121.433C582.485 119.88 583.68 115.365 587.767 115.2Z" fill="#3F3D56"/>
<path d="M611.631 127.919H573.447V134.432H611.631V127.919Z" fill="#F2F2F2"/>
<path d="M597.047 267.176H579.281C566.906 227.352 566.906 188.293 579.281 150H597.047C608.357 189.732 608.763 228.814 597.047 267.176Z" fill="#F2F2F2"/>
</g>
<defs>
<clipPath id="clip0_106_2949">
<rect width="220" height="312" fill="white" transform="translate(235)"/>
</clipPath>
<clipPath id="clip1_106_2949">
<rect width="220" height="269" fill="white" transform="translate(0 43)"/>
</clipPath>
<clipPath id="clip2_106_2949">
<rect width="220" height="216" fill="white" transform="translate(454 96)"/>
</clipPath>
</defs>
</svg>
