<svg width="835" height="346" viewBox="0 0 835 346" fill="none" xmlns="http://www.w3.org/2000/svg">
<path d="M454 345.519H257V73.2419C257 37.8072 257 73.2419 316.27 8.97876H394.73C454 73.2419 454 37.8072 454 73.2419V345.519Z" fill="#E6E6E6"/>
<path d="M386.679 70.2428H325.177C320.24 70.2428 316.223 65.8875 316.223 60.5336V42.6966C316.223 37.3428 320.24 32.9874 325.177 32.9874H386.679C391.617 32.9874 395.634 37.3428 395.634 42.6966V60.5336C395.634 65.8875 391.617 70.2428 386.679 70.2428Z" fill="white"/>
<path d="M357.409 147.651V14.3597H356.645V147.651H357.409Z" fill="#E6E6E6"/>
<path d="M430.91 295.017H415.242C410.72 295.017 407.041 291.028 407.041 286.126V234.366C407.041 229.463 410.72 225.474 415.242 225.474H430.91C435.432 225.474 439.111 229.463 439.111 234.366V286.126C439.111 291.028 435.432 295.017 430.91 295.017Z" fill="white"/>
<path d="M328.592 331.445H285.435C280.913 331.445 277.234 327.456 277.234 322.553V231.054C277.234 226.152 280.913 222.162 285.435 222.162H328.592C333.114 222.162 336.793 226.152 336.793 231.054V322.553C336.793 327.456 333.114 331.445 328.592 331.445Z" fill="white"/>
<path d="M337.849 229.199H276.22C273.9 229.199 271.939 227.654 271.224 225.261C270.509 222.869 271.26 220.37 273.138 218.894L304.283 194.422C306.146 192.959 308.641 192.973 310.49 194.458L340.974 218.929C342.828 220.418 343.559 222.914 342.836 225.29C342.113 227.665 340.156 229.199 337.849 229.199Z" fill="#CCCCCC"/>
<path d="M437.329 230.027H408.863C406.544 230.027 404.583 228.482 403.867 226.089C403.152 223.697 403.904 221.198 405.782 219.722L420.167 208.419C422.03 206.955 424.525 206.969 426.374 208.454L440.454 219.757C442.308 221.245 443.039 223.741 442.316 226.117C441.593 228.492 439.636 230.027 437.329 230.027Z" fill="#CCCCCC"/>
<path d="M424.631 181.596H407.012C403.028 181.596 399.787 178.081 399.787 173.761V119.886C399.787 115.567 403.028 112.052 407.012 112.052H424.631C428.616 112.052 431.857 115.567 431.857 119.886V173.761C431.857 178.081 428.616 181.596 424.631 181.596Z" fill="white"/>
<path d="M364.31 181.596H346.69C342.706 181.596 339.465 178.081 339.465 173.761V119.886C339.465 115.567 342.706 112.052 346.69 112.052H364.31C368.294 112.052 371.535 115.567 371.535 119.886V173.761C371.535 178.081 368.294 181.596 364.31 181.596Z" fill="white"/>
<path d="M303.224 181.596H285.605C281.621 181.596 278.38 178.081 278.38 173.761V119.886C278.38 115.567 281.621 112.052 285.605 112.052H303.224C307.209 112.052 310.45 115.567 310.45 119.886V173.761C310.45 178.081 307.209 181.596 303.224 181.596Z" fill="white"/>
<path d="M429.949 118.261H281.05C278.384 118.261 276.751 116.213 276.316 114.185C275.881 112.155 276.513 109.536 278.907 108.26L354.154 68.1677C355.51 67.4458 357.127 67.4522 358.479 68.188L432.13 108.28C434.217 109.417 435.218 111.743 434.679 114.207C434.141 116.669 432.284 118.261 429.949 118.261Z" fill="#CCCCCC"/>
<path d="M453.618 345.105H264.664V324.313C264.664 307.932 287.03 294.604 314.522 294.604H453.618V345.105Z" fill="#8B99BA"/>
<path d="M380.316 265.213H370.39V304.952H380.316V265.213Z" fill="#8B99BA"/>
<path d="M453.618 265.213H443.692V304.952H453.618V265.213Z" fill="#8B99BA"/>
<path d="M446.746 268.524H378.789V269.352H446.746V268.524Z" fill="#8B99BA"/>
<path d="M439.111 146.824H274.18V147.652H439.111V146.824Z" fill="#E6E6E6"/>
<path d="M446.746 281.771H378.789V282.599H446.746V281.771Z" fill="#8B99BA"/>
<path d="M446.746 288.394H378.789V289.222H446.746V288.394Z" fill="#8B99BA"/>
<path d="M394.062 36.5206H316.938C315.737 36.5206 314.722 35.721 314.352 34.4824C313.982 33.2446 314.371 31.951 315.343 31.187L354.318 0.562847C355.283 -0.193094 356.574 -0.188245 357.53 0.58144L395.679 31.2056C396.639 31.9753 397.017 33.2673 396.643 34.497C396.269 35.7259 395.256 36.5206 394.062 36.5206Z" fill="#CCCCCC"/>
<path d="M294.033 277.631H280.289V279.287H294.033V277.631Z" fill="#E6E6E6"/>
<path d="M233.449 344.763H0V92.7822C0 59.9889 0 92.7822 70.2355 33.3094H163.213C233.449 92.7822 233.449 59.9889 233.449 92.7822V344.763Z" fill="#E6E6E6"/>
<path d="M153.672 90.0066H80.7915C74.9405 90.0066 70.1804 85.9759 70.1804 81.0212V64.5138C70.1804 59.5591 74.9405 55.5284 80.7915 55.5284H153.672C159.524 55.5284 164.284 59.5591 164.284 64.5138V81.0212C164.284 85.9759 159.524 90.0066 153.672 90.0066Z" fill="white"/>
<path d="M118.986 161.645L118.986 38.2893H118.082L118.082 161.645H118.986Z" fill="#E6E6E6"/>
<path d="M206.086 298.026H187.519C182.161 298.026 177.801 294.334 177.801 289.797V241.895C177.801 237.358 182.161 233.666 187.519 233.666H206.086C211.445 233.666 215.804 237.358 215.804 241.895V289.797C215.804 294.334 211.445 298.026 206.086 298.026Z" fill="white"/>
<path d="M84.8375 331.738H33.6964C28.3376 331.738 23.9782 328.046 23.9782 323.509V238.83C23.9782 234.293 28.3376 230.601 33.6964 230.601H84.8375C90.1963 230.601 94.5557 234.293 94.5557 238.83V323.509C94.5557 328.046 90.1963 331.738 84.8375 331.738Z" fill="white"/>
<path d="M95.8074 237.114H22.7756C20.0271 237.114 17.7031 235.683 16.8553 233.469C16.0079 231.255 16.8981 228.942 19.1236 227.576L56.0307 204.929C58.2389 203.575 61.1951 203.588 63.386 204.962L99.5103 227.609C101.708 228.987 102.574 231.297 101.718 233.495C100.861 235.694 98.5414 237.114 95.8074 237.114Z" fill="#CCCCCC"/>
<path d="M213.693 237.88H179.961C177.212 237.88 174.889 236.45 174.041 234.236C173.193 232.022 174.084 229.709 176.309 228.343L193.356 217.882C195.564 216.528 198.52 216.541 200.711 217.915L217.396 228.375C219.593 229.752 220.46 232.063 219.603 234.261C218.747 236.459 216.427 237.88 213.693 237.88Z" fill="#CCCCCC"/>
<path d="M198.646 193.059H177.767C173.046 193.059 169.205 189.806 169.205 185.808V135.949C169.205 131.952 173.046 128.699 177.767 128.699H198.646C203.368 128.699 207.208 131.952 207.208 135.949V185.808C207.208 189.806 203.368 193.059 198.646 193.059Z" fill="white"/>
<path d="M127.164 193.059H106.285C101.564 193.059 97.7228 189.806 97.7228 185.808V135.949C97.7228 131.952 101.564 128.699 106.285 128.699H127.164C131.885 128.699 135.726 131.952 135.726 135.949V185.808C135.726 189.806 131.885 193.059 127.164 193.059Z" fill="white"/>
<path d="M54.7768 193.059H33.8975C29.1762 193.059 25.3355 189.806 25.3355 185.808V135.949C25.3355 131.952 29.1762 128.699 33.8975 128.699H54.7768C59.4981 128.699 63.3388 131.952 63.3388 135.949V185.808C63.3388 189.806 59.4981 193.059 54.7768 193.059Z" fill="white"/>
<path d="M204.948 134.445H28.5002C25.3399 134.445 23.4052 132.55 22.8896 130.673C22.374 128.794 23.1233 126.371 25.9598 125.19L115.129 88.0862C116.736 87.418 118.652 87.424 120.254 88.1049L207.533 125.209C210.005 126.261 211.191 128.413 210.553 130.693C209.915 132.972 207.715 134.445 204.948 134.445Z" fill="#CCCCCC"/>
<path d="M232.996 344.38H9.08148V325.138C9.08148 309.977 35.586 297.642 68.1649 297.642H232.996V344.38Z" fill="#8B99BA"/>
<path d="M146.132 270.443H134.369V307.22H146.132V270.443Z" fill="#8B99BA"/>
<path d="M232.996 270.443H221.233V307.22H232.996V270.443Z" fill="#8B99BA"/>
<path d="M224.853 273.507H144.322V274.274H224.853V273.507Z" fill="#8B99BA"/>
<path d="M215.804 160.879H20.359V161.645H215.804V160.879Z" fill="#E6E6E6"/>
<path d="M224.853 285.766H144.322V286.533H224.853V285.766Z" fill="#8B99BA"/>
<path d="M224.853 291.896H144.322V292.662H224.853V291.896Z" fill="#8B99BA"/>
<path d="M162.421 58.7982H71.0272C69.6045 58.7982 68.4019 58.0582 67.9632 56.9119C67.5245 55.7664 67.9853 54.5693 69.1371 53.8622L115.324 25.5209C116.467 24.8213 117.997 24.8258 119.13 25.5381L164.338 53.8794C165.475 54.5917 165.923 55.7874 165.48 56.9254C165.037 58.0627 163.836 58.7982 162.421 58.7982Z" fill="#CCCCCC"/>
<path d="M43.8848 281.935H27.5977V283.468H43.8848V281.935Z" fill="#E6E6E6"/>
<path d="M690 345.519H494V144.164C494 117.959 494 144.164 552.969 96.64H631.031C690 144.164 690 117.959 690 144.164V345.519Z" fill="#E6E6E6"/>
<path d="M623.021 141.946H561.831C556.919 141.946 552.922 138.725 552.922 134.766V121.575C552.922 117.616 556.919 114.395 561.831 114.395H623.021C627.934 114.395 631.93 117.616 631.93 121.575V134.766C631.93 138.725 627.934 141.946 623.021 141.946Z" fill="white"/>
<path d="M593.899 199.192V100.619H593.14V199.192H593.899Z" fill="#E6E6E6"/>
<path d="M667.027 308.172H651.438C646.939 308.172 643.279 305.222 643.279 301.596V263.319C643.279 259.693 646.939 256.743 651.438 256.743H667.027C671.526 256.743 675.186 259.693 675.186 263.319V301.596C675.186 305.222 671.526 308.172 667.027 308.172Z" fill="white"/>
<path d="M565.228 335.111H522.291C517.792 335.111 514.132 332.161 514.132 328.535V260.87C514.132 257.244 517.792 254.294 522.291 254.294H565.228C569.727 254.294 573.388 257.244 573.388 260.87V328.535C573.388 332.161 569.727 335.111 565.228 335.111Z" fill="white"/>
<path d="M574.438 259.498H513.122C510.814 259.498 508.863 258.355 508.151 256.586C507.44 254.817 508.187 252.969 510.056 251.877L541.043 233.779C542.897 232.698 545.378 232.708 547.218 233.806L577.547 251.903C579.392 253.004 580.119 254.85 579.401 256.607C578.681 258.363 576.734 259.498 574.438 259.498Z" fill="#CCCCCC"/>
<path d="M673.413 260.11H645.093C642.785 260.11 640.834 258.967 640.122 257.198C639.41 255.429 640.158 253.581 642.026 252.489L656.339 244.13C658.193 243.048 660.674 243.058 662.514 244.157L676.523 252.515C678.367 253.615 679.095 255.462 678.376 257.218C677.657 258.975 675.709 260.11 673.413 260.11Z" fill="#CCCCCC"/>
<path d="M660.78 224.294H643.25C639.287 224.294 636.062 221.695 636.062 218.5V178.659C636.062 175.464 639.287 172.865 643.25 172.865H660.78C664.744 172.865 667.969 175.464 667.969 178.659V218.5C667.969 221.695 664.744 224.294 660.78 224.294Z" fill="white"/>
<path d="M600.765 224.294H583.235C579.271 224.294 576.046 221.695 576.046 218.5V198.58V178.659C576.046 175.464 579.271 172.865 583.235 172.865H600.765C604.729 172.865 607.953 175.464 607.953 178.659V218.5C607.953 221.695 604.729 224.294 600.765 224.294Z" fill="white"/>
<path d="M539.99 224.294H522.46C518.496 224.294 515.271 221.695 515.271 218.5V178.659C515.271 175.464 518.496 172.865 522.46 172.865H539.99C543.954 172.865 547.178 175.464 547.178 178.659V218.5C547.178 221.695 543.954 224.294 539.99 224.294Z" fill="white"/>
<path d="M666.071 177.457H517.928C515.275 177.457 513.651 175.942 513.218 174.442C512.785 172.941 513.414 171.004 515.795 170.061L590.661 140.412C592.01 139.878 593.618 139.882 594.964 140.427L668.241 170.076C670.317 170.916 671.313 172.637 670.777 174.458C670.241 176.28 668.394 177.457 666.071 177.457Z" fill="#CCCCCC"/>
<path d="M689.62 345.213H586.682V329.837C586.682 317.722 598.867 307.866 613.844 307.866H689.62V345.213Z" fill="#8B99BA"/>
<path d="M616.69 286.131H606.814V315.519H616.69V286.131Z" fill="#8B99BA"/>
<path d="M689.62 286.131H679.744V315.519H689.62V286.131Z" fill="#8B99BA"/>
<path d="M682.783 288.58H615.171V289.192H682.783V288.58Z" fill="#8B99BA"/>
<path d="M675.186 198.579H511.093V199.192H675.186V198.579Z" fill="#E6E6E6"/>
<path d="M682.783 298.376H615.171V298.988H682.783V298.376Z" fill="#8B99BA"/>
<path d="M682.783 303.274H615.171V303.886H682.783V303.274Z" fill="#8B99BA"/>
<path d="M630.367 117.008H553.633C552.439 117.008 551.429 116.417 551.061 115.501C550.693 114.585 551.08 113.629 552.047 113.063L590.825 90.4162C591.784 89.8572 593.068 89.8608 594.02 90.43L631.975 113.077C632.93 113.646 633.307 114.602 632.935 115.511C632.563 116.42 631.554 117.008 630.367 117.008Z" fill="#CCCCCC"/>
<path d="M530.845 295.315H517.171V296.539H530.845V295.315Z" fill="#E6E6E6"/>
<path d="M835 345.519H711V183.565C711 162.488 711 183.565 748.307 145.341H797.693C835 183.565 835 162.488 835 183.565V345.519Z" fill="#E6E6E6"/>
<path d="M792.625 181.781H753.914C750.806 181.781 748.277 179.191 748.277 176.006V165.397C748.277 162.212 750.806 159.621 753.914 159.621H792.625C795.733 159.621 798.262 162.212 798.262 165.397V176.006C798.262 179.191 795.733 181.781 792.625 181.781Z" fill="white"/>
<path d="M774.202 227.825V148.541H773.721V227.825H774.202Z" fill="#E6E6E6"/>
<path d="M820.466 315.48H810.604C807.757 315.48 805.442 313.107 805.442 310.191V279.404C805.442 276.488 807.757 274.115 810.604 274.115H820.466C823.312 274.115 825.628 276.488 825.628 279.404V310.191C825.628 313.107 823.312 315.48 820.466 315.48Z" fill="white"/>
<path d="M756.063 337.148H728.898C726.052 337.148 723.736 334.775 723.736 331.859V277.434C723.736 274.518 726.052 272.145 728.898 272.145H756.063C758.909 272.145 761.225 274.518 761.225 277.434V331.859C761.225 334.775 758.909 337.148 756.063 337.148Z" fill="white"/>
<path d="M761.89 276.331H723.098C721.638 276.331 720.403 275.411 719.953 273.988C719.503 272.565 719.976 271.079 721.158 270.201L740.762 255.645C741.935 254.775 743.505 254.783 744.669 255.666L763.856 270.222C765.024 271.107 765.484 272.592 765.029 274.005C764.574 275.418 763.342 276.331 761.89 276.331Z" fill="#CCCCCC"/>
<path d="M824.506 276.823H806.589C805.129 276.823 803.895 275.904 803.444 274.481C802.994 273.058 803.467 271.571 804.649 270.693L813.704 263.97C814.877 263.1 816.447 263.108 817.611 263.991L826.473 270.714C827.64 271.599 828.101 273.084 827.646 274.497C827.191 275.91 825.959 276.823 824.506 276.823Z" fill="#CCCCCC"/>
<path d="M816.514 248.015H805.424C802.916 248.015 800.876 245.925 800.876 243.355V211.31C800.876 208.741 802.916 206.65 805.424 206.65H816.514C819.022 206.65 821.062 208.741 821.062 211.31V243.355C821.062 245.925 819.022 248.015 816.514 248.015Z" fill="white"/>
<path d="M778.545 248.015H767.455C764.947 248.015 762.907 245.925 762.907 243.355V211.31C762.907 208.741 764.947 206.65 767.455 206.65H778.545C781.053 206.65 783.093 208.741 783.093 211.31V243.355C783.093 245.925 781.053 248.015 778.545 248.015Z" fill="white"/>
<path d="M740.096 248.015H729.005C726.497 248.015 724.457 245.925 724.457 243.355V211.31C724.457 208.741 726.497 206.65 729.005 206.65H740.096C742.603 206.65 744.643 208.741 744.643 211.31V243.355C744.643 245.925 742.603 248.015 740.096 248.015Z" fill="white"/>
<path d="M819.861 210.343H726.138C724.46 210.343 723.432 209.125 723.158 207.919C722.884 206.711 723.282 205.153 724.789 204.395L772.153 180.547C773.006 180.118 774.024 180.121 774.875 180.559L821.234 204.407C822.548 205.083 823.178 206.466 822.839 207.932C822.5 209.396 821.331 210.343 819.861 210.343Z" fill="#CCCCCC"/>
<path d="M834.76 345.273H769.636V332.906C769.636 323.162 777.344 315.234 786.82 315.234H834.76V345.273Z" fill="#8B99BA"/>
<path d="M788.62 297.752H782.372V321.39H788.62V297.752Z" fill="#8B99BA"/>
<path d="M834.76 297.752H828.512V321.39H834.76V297.752Z" fill="#8B99BA"/>
<path d="M830.434 299.722H787.659V300.214H830.434V299.722Z" fill="#8B99BA"/>
<path d="M825.628 227.333H721.814V227.825H825.628V227.333Z" fill="#E6E6E6"/>
<path d="M830.434 307.601H787.659V308.093H830.434V307.601Z" fill="#8B99BA"/>
<path d="M830.434 311.541H787.659V312.033H830.434V311.541Z" fill="#8B99BA"/>
<path d="M797.273 161.723H748.727C747.972 161.723 747.333 161.247 747.1 160.511C746.867 159.774 747.112 159.005 747.723 158.55L772.256 140.335C772.863 139.885 773.676 139.888 774.278 140.346L798.291 158.561C798.895 159.019 799.133 159.788 798.897 160.519C798.662 161.25 798.024 161.723 797.273 161.723Z" fill="#CCCCCC"/>
<path d="M734.31 305.139H725.659V306.124H734.31V305.139Z" fill="#E6E6E6"/>
</svg>
